<?xml version="1.0" encoding="utf-8"?>
<!-- Generator: Adobe Illustrator 18.0.0, SVG Export Plug-In . SVG Version: 6.00 Build 0)  -->
<!DOCTYPE svg PUBLIC "-//W3C//DTD SVG 1.1//EN" "http://www.w3.org/Graphics/SVG/1.1/DTD/svg11.dtd">
<svg version="1.1" id="Layer_1" xmlns="http://www.w3.org/2000/svg" xmlns:xlink="http://www.w3.org/1999/xlink" x="0px" y="0px"
	 viewBox="0 0 141.7 141.7" enable-background="new 0 0 141.7 141.7" xml:space="preserve">
<path fill="#FFFFFF" d="M125,30.9c1.5,1.5,2.7,3.4,3.7,5.9c1,2.5,1.5,4.7,1.5,6.8v89.1c0,4.1-3.3,7.4-7.4,7.4h-104
	c-4.1,0-7.4-3.3-7.4-7.4V9c0-4.1,3.3-7.4,7.4-7.4h69.3c2.1,0,4.3,0.5,6.8,1.5c2.5,1,4.4,2.2,5.9,3.7L125,30.9z M90.7,12.1v29.1h29.1
	c-0.5-1.5-1.1-2.6-1.7-3.2L93.8,13.8C93.2,13.1,92.1,12.6,90.7,12.1L90.7,12.1z M120.4,130.3V51.1H88.2c-4.1,0-7.4-3.3-7.4-7.4V11.4
	H21.3v118.9H120.4z M29.5,61v8.3h5.4l12.7,51.1h12.3l9.9-37.5c0.4-1,0.6-2.2,0.8-3.6c0.1-0.9,0.2-1.5,0.2-1.9H71l0.2,1.9
	c0.1,0.3,0.4,2.6,0.7,3.6l9.9,37.5h12.3l12.7-51.1h5.4V61H89v8.3h7l-7.7,33.9c-0.2,1-0.5,2.2-0.5,3.6l-0.2,1.6h-0.3l-0.2-1.6
	c-0.1-0.5-0.5-2.6-0.7-3.6L75.3,61h-8.8l-11.1,42.2c-0.2,0.9-0.5,2.9-0.6,3.6l-0.3,1.6h-0.3l-0.2-1.6c-0.1-1.3-0.3-2.6-0.5-3.6
	l-7.7-33.9h7V61H29.5z"/>
</svg>
