<?xml version="1.0" encoding="utf-8"?>
<!-- Generator: Adobe Illustrator 19.2.0, SVG Export Plug-In . SVG Version: 6.00 Build 0)  -->
<svg version="1.1" xmlns="http://www.w3.org/2000/svg" xmlns:xlink="http://www.w3.org/1999/xlink" x="0px" y="0px"
	 viewBox="0 0 246.8 47.3" enable-background="new 0 0 246.8 47.3" xml:space="preserve">
<g id="Text">
	<g>
		<path fill="#010101" d="M100.6,45.2h-7V25.9H73.8v19.3h-7V2.4h7v17.5h19.7V2.4h7V45.2z"/>
		<path fill="#010101" d="M131.4,45.2l-1.4-4.5h-0.2c-1.6,2-3.1,3.3-4.7,4s-3.6,1.1-6.1,1.1c-3.2,0-5.7-0.9-7.5-2.6
			s-2.7-4.2-2.7-7.3c0-3.3,1.2-5.9,3.7-7.6c2.5-1.7,6.3-2.6,11.3-2.8l5.6-0.2v-1.7c0-2.1-0.5-3.6-1.5-4.6c-1-1-2.5-1.5-4.5-1.5
			c-1.7,0-3.3,0.2-4.8,0.7c-1.5,0.5-3,1.1-4.4,1.7l-2.2-4.9c1.8-0.9,3.7-1.6,5.8-2.1c2.1-0.5,4.1-0.7,5.9-0.7c4.1,0,7.2,0.9,9.3,2.7
			c2.1,1.8,3.1,4.6,3.1,8.5v21.8H131.4z M121.2,40.5c2.5,0,4.5-0.7,6-2.1c1.5-1.4,2.3-3.4,2.3-5.9v-2.8l-4.2,0.2
			c-3.2,0.1-5.6,0.7-7.1,1.6c-1.5,1-2.2,2.4-2.2,4.4c0,1.4,0.4,2.6,1.3,3.4C118.2,40.1,119.5,40.5,121.2,40.5z"/>
		<path fill="#010101" d="M162.4,12.2c1.4,0,2.5,0.1,3.4,0.3l-0.7,6.4c-1-0.2-2-0.4-3-0.4c-2.8,0-5,0.9-6.7,2.7
			c-1.7,1.8-2.6,4.1-2.6,7v16.9H146V12.8h5.4l0.9,5.7h0.4c1.1-1.9,2.5-3.5,4.2-4.6C158.5,12.8,160.4,12.2,162.4,12.2z"/>
		<path fill="#010101" d="M188.3,12.2c1.4,0,2.5,0.1,3.4,0.3l-0.7,6.4c-1-0.2-2-0.4-3-0.4c-2.8,0-5,0.9-6.7,2.7
			c-1.7,1.8-2.6,4.1-2.6,7v16.9h-6.9V12.8h5.4l0.9,5.7h0.4c1.1-1.9,2.5-3.5,4.2-4.6C184.4,12.8,186.3,12.2,188.3,12.2z"/>
		<path fill="#010101" d="M197.3,4.2c0-1.2,0.3-2.2,1-2.8c0.7-0.7,1.6-1,2.9-1c1.2,0,2.2,0.3,2.8,1c0.7,0.7,1,1.6,1,2.8
			c0,1.2-0.3,2.1-1,2.8s-1.6,1-2.8,1c-1.3,0-2.2-0.3-2.9-1S197.3,5.4,197.3,4.2z M204.6,45.2h-6.9V12.8h6.9V45.2z"/>
		<path fill="#010101" d="M221.6,28.7l-10.9-15.8h7.9l7.4,11.3l7.4-11.3h7.8l-10.9,15.8l11.5,16.6H234l-8-12.1l-8,12.1h-7.8
			L221.6,28.7z"/>
	</g>
</g>
<g id="Logo">
	<g>
		<path fill="#DE2B26" d="M8.4,27.6C6.8,21,9.5,14,15.2,10.3l5.2,12l5-2.2l-5.2-12c6.6-1.6,13.5,1.1,17.2,6.8l5.1-2.2
			C37.1,3.5,25.5-0.4,15.4,4S0.3,19.5,3.3,29.8L8.4,27.6z"/>
		<path fill="#DE2B26" d="M39.6,20c1.6,6.6-1.1,13.5-6.8,17.2l-5.2-12l-5,2.2l5.2,12c-6.6,1.6-13.5-1.1-17.2-6.8l-5.1,2.2
			c5.5,9.2,17.1,13.1,27.1,8.7S47.7,28,44.7,17.7L39.6,20z"/>
	</g>
</g>
</svg>
