<?xml version="1.0" encoding="utf-8"?>
<!-- Generator: Adobe Illustrator 19.2.0, SVG Export Plug-In . SVG Version: 6.00 Build 0)  -->
<svg version="1.1" xmlns="http://www.w3.org/2000/svg" xmlns:xlink="http://www.w3.org/1999/xlink" x="0px" y="0px"
	 viewBox="0 0 303.8 108" enable-background="new 0 0 303.8 108" xml:space="preserve">
<g id="Text">
	<g>
		<path fill="#010101" d="M157.6,76.5h-7V57.2h-19.7v19.3h-7V33.7h7v17.5h19.7V33.7h7V76.5z"/>
		<path fill="#010101" d="M188.4,76.5L187,72h-0.2c-1.6,2-3.1,3.3-4.7,4s-3.6,1.1-6.1,1.1c-3.2,0-5.7-0.9-7.5-2.6s-2.7-4.2-2.7-7.3
			c0-3.3,1.2-5.9,3.7-7.6c2.5-1.7,6.3-2.6,11.3-2.8l5.6-0.2V55c0-2.1-0.5-3.6-1.5-4.6s-2.5-1.5-4.5-1.5c-1.7,0-3.3,0.2-4.8,0.7
			c-1.5,0.5-3,1.1-4.4,1.7l-2.2-4.9c1.8-0.9,3.7-1.6,5.8-2.1c2.1-0.5,4.1-0.7,5.9-0.7c4.1,0,7.2,0.9,9.3,2.7
			c2.1,1.8,3.1,4.6,3.1,8.5v21.8H188.4z M178.2,71.9c2.5,0,4.5-0.7,6-2.1c1.5-1.4,2.3-3.4,2.3-5.9v-2.8l-4.2,0.2
			c-3.2,0.1-5.6,0.7-7.1,1.6c-1.5,1-2.2,2.4-2.2,4.4c0,1.4,0.4,2.6,1.3,3.4C175.2,71.5,176.5,71.9,178.2,71.9z"/>
		<path fill="#010101" d="M219.4,43.6c1.4,0,2.5,0.1,3.4,0.3l-0.7,6.4c-1-0.2-2-0.4-3-0.4c-2.8,0-5,0.9-6.7,2.7
			c-1.7,1.8-2.6,4.1-2.6,7v16.9H203V44.1h5.4l0.9,5.7h0.4c1.1-1.9,2.5-3.5,4.2-4.6C215.5,44.1,217.4,43.6,219.4,43.6z"/>
		<path fill="#010101" d="M245.3,43.6c1.4,0,2.5,0.1,3.4,0.3l-0.7,6.4c-1-0.2-2-0.4-3-0.4c-2.8,0-5,0.9-6.7,2.7
			c-1.7,1.8-2.6,4.1-2.6,7v16.9h-6.9V44.1h5.4l0.9,5.7h0.4c1.1-1.9,2.5-3.5,4.2-4.6C241.4,44.1,243.3,43.6,245.3,43.6z"/>
		<path fill="#010101" d="M254.3,35.6c0-1.2,0.3-2.2,1-2.8c0.7-0.7,1.6-1,2.9-1c1.2,0,2.2,0.3,2.8,1c0.7,0.7,1,1.6,1,2.8
			c0,1.2-0.3,2.1-1,2.8s-1.6,1-2.8,1c-1.3,0-2.2-0.3-2.9-1S254.3,36.7,254.3,35.6z M261.6,76.5h-6.9V44.1h6.9V76.5z"/>
		<path fill="#010101" d="M278.6,60l-10.9-15.8h7.9l7.4,11.3l7.4-11.3h7.8L287.3,60l11.5,16.6H291l-8-12.1l-8,12.1h-7.8L278.6,60z"
			/>
	</g>
</g>
<g id="Logo">
	<g>
		<path fill="#DE2B26" d="M17.8,63.3c-3.7-14.9,2.5-30.7,15.4-39.1L45,51.4l11.4-5L44.6,19.2c14.9-3.7,30.7,2.5,39.1,15.4l11.6-5
			C82.9,8.7,56.6-0.2,33.7,9.8S-0.6,45,6.2,68.3L17.8,63.3z"/>
		<path fill="#DE2B26" d="M88.7,46c3.7,14.9-2.5,30.7-15.4,39.1L61.4,57.9l-11.4,5l11.8,27.3c-14.9,3.7-30.7-2.5-39.1-15.4l-11.6,5
			c12.4,20.9,38.7,29.7,61.5,19.8S107,64.3,100.2,41L88.7,46z"/>
	</g>
</g>
</svg>
