<?xml version="1.0" encoding="utf-8"?>
<!-- Generator: Adobe Illustrator 18.0.0, SVG Export Plug-In . SVG Version: 6.00 Build 0)  -->
<!DOCTYPE svg PUBLIC "-//W3C//DTD SVG 1.1//EN" "http://www.w3.org/Graphics/SVG/1.1/DTD/svg11.dtd">
<svg version="1.1" xmlns="http://www.w3.org/2000/svg" xmlns:xlink="http://www.w3.org/1999/xlink" x="0px" y="0px"
	 viewBox="0 0 446.3 108" enable-background="new 0 0 446.3 108" xml:space="preserve">
<g id="Text">
	<g>
		<path fill="#010101" d="M157.6,76.5h-7V57.2h-19.7v19.3h-7V33.7h7v17.5h19.7V33.7h7V76.5z"/>
		<path fill="#010101" d="M188.4,76.5L187,72h-0.2c-1.6,2-3.1,3.3-4.7,4s-3.6,1.1-6.1,1.1c-3.2,0-5.7-0.9-7.5-2.6s-2.7-4.2-2.7-7.3
			c0-3.3,1.2-5.9,3.7-7.6c2.5-1.7,6.3-2.6,11.3-2.8l5.6-0.2V55c0-2.1-0.5-3.6-1.5-4.6s-2.5-1.5-4.5-1.5c-1.7,0-3.3,0.2-4.8,0.7
			c-1.5,0.5-3,1.1-4.4,1.7l-2.2-4.9c1.8-0.9,3.7-1.6,5.8-2.1c2.1-0.5,4.1-0.7,5.9-0.7c4.1,0,7.2,0.9,9.3,2.7
			c2.1,1.8,3.1,4.6,3.1,8.5v21.8H188.4z M178.2,71.9c2.5,0,4.5-0.7,6-2.1c1.5-1.4,2.3-3.4,2.3-5.9v-2.8l-4.2,0.2
			c-3.2,0.1-5.6,0.7-7.1,1.6c-1.5,1-2.2,2.4-2.2,4.4c0,1.4,0.4,2.6,1.3,3.4C175.2,71.5,176.5,71.9,178.2,71.9z"/>
		<path fill="#010101" d="M219.4,43.6c1.4,0,2.5,0.1,3.4,0.3l-0.7,6.4c-1-0.2-2-0.4-3-0.4c-2.8,0-5,0.9-6.7,2.7
			c-1.7,1.8-2.6,4.1-2.6,7v16.9H203V44.1h5.4l0.9,5.7h0.4c1.1-1.9,2.5-3.5,4.2-4.6C215.5,44.1,217.4,43.6,219.4,43.6z"/>
		<path fill="#010101" d="M245.3,43.6c1.4,0,2.5,0.1,3.4,0.3l-0.7,6.4c-1-0.2-2-0.4-3-0.4c-2.8,0-5,0.9-6.7,2.7
			c-1.7,1.8-2.6,4.1-2.6,7v16.9h-6.9V44.1h5.4l0.9,5.7h0.4c1.1-1.9,2.5-3.5,4.2-4.6C241.4,44.1,243.3,43.6,245.3,43.6z"/>
		<path fill="#010101" d="M254.3,35.6c0-1.2,0.3-2.2,1-2.8c0.7-0.7,1.6-1,2.9-1c1.2,0,2.2,0.3,2.8,1c0.7,0.7,1,1.6,1,2.8
			c0,1.2-0.3,2.1-1,2.8s-1.6,1-2.8,1c-1.3,0-2.2-0.3-2.9-1S254.3,36.7,254.3,35.6z M261.6,76.5h-6.9V44.1h6.9V76.5z"/>
		<path fill="#010101" d="M278.6,60l-10.9-15.8h7.9l7.4,11.3l7.4-11.3h7.8L287.3,60l11.5,16.6H291l-8-12.1l-8,12.1h-7.8L278.6,60z"
			/>
		<path fill="#010101" d="M331.2,52.6c4.9,0,8.6,0.9,11.1,2.8c2.5,1.9,3.7,4.8,3.7,8.8c0,3.9-1.2,7-3.6,9.1s-5.9,3.2-10.4,3.2h-12.2
			V33.7h24.1v2.8h-21.1v16.1H331.2z M322.6,73.9h8.8c3.8,0,6.7-0.8,8.6-2.3s2.8-4,2.8-7.3c0-3.2-0.9-5.5-2.8-6.9s-4.9-2.1-9.1-2.1
			h-8.2V73.9z"/>
		<path fill="#010101" d="M376.6,76.5h-2.9V47.4h-11.3c-0.6,7.7-1.3,13.6-2.2,17.7s-1.9,7-3.3,8.9s-3.1,2.9-5.2,2.9
			c-0.8,0-1.4-0.1-2-0.2V74c0.4,0.1,0.9,0.2,1.6,0.2c2.2,0,4-2.3,5.3-7s2.4-12.1,3.1-22.5h16.8V76.5z"/>
		<path fill="#010101" d="M413.6,60.6c0,5.2-1.3,9.3-3.8,12.2s-6,4.4-10.4,4.4c-2.8,0-5.3-0.7-7.4-2s-3.8-3.3-4.9-5.8
			s-1.7-5.4-1.7-8.7c0-5.2,1.3-9.2,3.8-12.1s6-4.4,10.4-4.4c4.4,0,7.8,1.5,10.3,4.4C412.4,51.4,413.6,55.5,413.6,60.6z M388.5,60.6
			c0,4.4,1,7.8,2.9,10.2s4.6,3.7,8.2,3.7s6.2-1.2,8.2-3.7s2.9-5.9,2.9-10.2c0-4.4-1-7.8-2.9-10.2c-1.9-2.4-4.7-3.6-8.2-3.6
			s-6.2,1.2-8.1,3.6C389.4,52.7,388.5,56.2,388.5,60.6z"/>
		<path fill="#010101" d="M441.1,47.2h-15.8v29.3h-2.9V44.7h18.7V47.2z"/>
	</g>
</g>
<g id="Logo">
	<g>
		<path fill="#DE2B26" d="M17.8,63.3c-3.7-14.9,2.5-30.7,15.4-39.1L45,51.4l11.4-5L44.6,19.2c14.9-3.7,30.7,2.5,39.1,15.4l11.6-5
			C82.9,8.7,56.6-0.2,33.7,9.8S-0.6,45,6.2,68.3L17.8,63.3z"/>
		<path fill="#DE2B26" d="M88.7,46c3.7,14.9-2.5,30.7-15.4,39.1L61.4,57.9l-11.4,5l11.8,27.3c-14.9,3.7-30.7-2.5-39.1-15.4l-11.6,5
			c12.4,20.9,38.7,29.7,61.5,19.8S107,64.3,100.2,41L88.7,46z"/>
	</g>
</g>
</svg>
