<?xml version="1.0" encoding="utf-8"?>
<!-- Generator: Adobe Illustrator 19.2.0, SVG Export Plug-In . SVG Version: 6.00 Build 0)  -->
<svg version="1.1" id="Layer_1" xmlns="http://www.w3.org/2000/svg" xmlns:xlink="http://www.w3.org/1999/xlink" x="0px" y="0px"
	 viewBox="0 0 245 49.5" style="enable-background:new 0 0 245 49.5;" xml:space="preserve">
<style type="text/css">
	.st0{fill:#010101;}
	.st1{fill:#DE2B26;}
</style>
<g id="Text">
	<g>
		<path class="st0" d="M100.1,46h-7V26.7H73.4V46h-7V3.2h7v17.5h19.7V3.2h7V46z"/>
		<path class="st0" d="M130.9,46l-1.4-4.5h-0.2c-1.6,2-3.1,3.3-4.7,4s-3.6,1.1-6.1,1.1c-3.2,0-5.7-0.9-7.5-2.6s-2.7-4.2-2.7-7.3
			c0-3.3,1.2-5.9,3.7-7.6c2.5-1.7,6.3-2.6,11.3-2.8l5.6-0.2v-1.6c0-2.1-0.5-3.6-1.5-4.6s-2.5-1.5-4.5-1.5c-1.7,0-3.3,0.2-4.8,0.7
			s-3,1.1-4.4,1.7l-2.2-4.9c1.8-0.9,3.7-1.6,5.8-2.1s4.1-0.7,5.9-0.7c4.1,0,7.2,0.9,9.3,2.7s3.1,4.6,3.1,8.5v21.8h-4.7V46z
			 M120.7,41.4c2.5,0,4.5-0.7,6-2.1s2.3-3.4,2.3-5.9v-2.8l-4.2,0.2c-3.2,0.1-5.6,0.7-7.1,1.6c-1.5,1-2.2,2.4-2.2,4.4
			c0,1.4,0.4,2.6,1.3,3.4C117.7,41,119,41.4,120.7,41.4z"/>
		<path class="st0" d="M161.9,13.1c1.4,0,2.5,0.1,3.4,0.3l-0.7,6.4c-1-0.2-2-0.4-3-0.4c-2.8,0-5,0.9-6.7,2.7s-2.6,4.1-2.6,7V46h-6.8
			V13.6h5.4l0.9,5.7h0.4c1.1-1.9,2.5-3.5,4.2-4.6C158,13.6,159.9,13.1,161.9,13.1z"/>
		<path class="st0" d="M187.8,13.1c1.4,0,2.5,0.1,3.4,0.3l-0.7,6.4c-1-0.2-2-0.4-3-0.4c-2.8,0-5,0.9-6.7,2.7s-2.6,4.1-2.6,7V46h-6.9
			V13.6h5.4l0.9,5.7h0.4c1.1-1.9,2.5-3.5,4.2-4.6C183.9,13.6,185.8,13.1,187.8,13.1z"/>
		<path class="st0" d="M196.8,5.1c0-1.2,0.3-2.2,1-2.8c0.7-0.7,1.6-1,2.9-1c1.2,0,2.2,0.3,2.8,1c0.7,0.7,1,1.6,1,2.8s-0.3,2.1-1,2.8
			s-1.6,1-2.8,1c-1.3,0-2.2-0.3-2.9-1S196.8,6.2,196.8,5.1z M204.1,46h-6.9V13.6h6.9V46z"/>
		<path class="st0" d="M221.1,29.5l-10.9-15.8h7.9l7.4,11.3l7.4-11.3h7.8l-10.9,15.8l11.5,16.6h-7.8l-8-12.1l-8,12.1h-7.8
			L221.1,29.5z"/>
	</g>
</g>
<g id="Logo">
	<g>
		<path class="st1" d="M8.2,28.6C6.6,22,9.3,15.1,15,11.4l5.2,11.9l5-2.2L20,9.2c6.5-1.6,13.4,1.1,17.1,6.7l5.1-2.2
			c-5.4-9.2-17-13.1-27-8.7s-15,15.4-12,25.6L8.2,28.6z"/>
		<path class="st1" d="M39.3,21c1.6,6.5-1.1,13.4-6.7,17.1l-5.2-11.9l-5,2.2l5.2,12C21,42,14,39.2,10.4,33.6l-5.1,2.2
			c5.4,9.2,17,13,26.9,8.7S47.3,29,44.3,18.8L39.3,21z"/>
	</g>
</g>
</svg>
