<?xml version="1.0" encoding="utf-8"?>
<!-- Generator: Adobe Illustrator 18.0.0, SVG Export Plug-In . SVG Version: 6.00 Build 0)  -->
<!DOCTYPE svg PUBLIC "-//W3C//DTD SVG 1.1//EN" "http://www.w3.org/Graphics/SVG/1.1/DTD/svg11.dtd">
<svg version="1.1" id="Layer_1" xmlns="http://www.w3.org/2000/svg" xmlns:xlink="http://www.w3.org/1999/xlink" x="0px" y="0px"
	 viewBox="0 0 141.7 141.7" enable-background="new 0 0 141.7 141.7" xml:space="preserve">
<path fill="#18A5A5" d="M70.5,3.3C32.6,3.3,2.1,33.6,2.1,71.5s30.5,68.2,68.4,68.2s68.4-30.3,68.4-68.2S108.4,3.3,70.5,3.3L70.5,3.3
	z M133.3,71.5c0,34.6-27.8,62.8-62.8,62.8S7.7,106.1,7.7,71.5c0-34.8,27.8-62.6,62.8-62.6S133.3,36.7,133.3,71.5L133.3,71.5z
	 M23.7,98.7V45.3h12.8l7.6,36.5l7.8-36.5h12.8v53.4h-8V56.5l-8.5,42.2H40l-8.4-42.2v42.2H23.7z M72.8,98.7V45.3h8.7v53.4H72.8z
	 M99.3,98.7V54.2H86.6v-8.9h33.8v8.9h-12.6v44.5C107.8,98.7,99.3,98.7,99.3,98.7z"/>
</svg>
