<?xml version="1.0" encoding="utf-8"?>
<!-- Generator: Adobe Illustrator 18.0.0, SVG Export Plug-In . SVG Version: 6.00 Build 0)  -->
<!DOCTYPE svg PUBLIC "-//W3C//DTD SVG 1.1//EN" "http://www.w3.org/Graphics/SVG/1.1/DTD/svg11.dtd">
<svg version="1.1" id="Layer_1" xmlns="http://www.w3.org/2000/svg" xmlns:xlink="http://www.w3.org/1999/xlink" x="0px" y="0px"
	 viewBox="0 0 141.7 141.7" enable-background="new 0 0 141.7 141.7" xml:space="preserve">
<path fill="#FFFFFF" d="M125.3,30.7c1.5,1.5,2.7,3.4,3.7,5.9c1,2.5,1.6,4.7,1.6,6.8v89.6c0,4.1-3.3,7.5-7.5,7.5H18.6
	c-4.1,0-7.5-3.3-7.5-7.5V8.7c0-4.1,3.3-7.5,7.5-7.5h69.7c2.1,0,4.4,0.5,6.8,1.6c2.5,1,4.4,2.3,5.9,3.7L125.3,30.7z M90.8,11.8V41
	H120c-0.5-1.5-1.1-2.6-1.7-3.2L94,13.5C93.3,12.9,92.2,12.3,90.8,11.8L90.8,11.8z M120.6,130.6V51H88.3c-4.1,0-7.5-3.3-7.5-7.5V11.2
	H21.1v119.4H120.6z M70.9,60.9c2.7,0,5.1,1,7,3c1.9,1.9,3,4.3,3,7v29.9c0,2.7-1,5.1-3,7c-1.9,1.9-4.3,3-7,3H41c-2.7,0-5.1-1-7-3
	c-1.9-1.9-3-4.3-3-7V70.9c0-2.7,1-5.1,3-7c1.9-1.9,4.3-3,7-3H70.9z M109.1,61.1c1,0.4,1.6,1.2,1.6,2.3v44.8c0,1.2-0.5,1.9-1.6,2.3
	c-0.4,0.1-0.7,0.2-0.9,0.2c-0.7,0-1.3-0.2-1.8-0.7L85.8,89.3v-7l20.6-20.7c0.5-0.5,1.1-0.7,1.8-0.7C108.4,60.9,108.7,61,109.1,61.1z
	"/>
</svg>
