<?xml version="1.0" encoding="utf-8"?>
<!-- Generator: Adobe Illustrator 18.0.0, SVG Export Plug-In . SVG Version: 6.00 Build 0)  -->
<!DOCTYPE svg PUBLIC "-//W3C//DTD SVG 1.1//EN" "http://www.w3.org/Graphics/SVG/1.1/DTD/svg11.dtd">
<svg version="1.1" id="Layer_1" xmlns="http://www.w3.org/2000/svg" xmlns:xlink="http://www.w3.org/1999/xlink" x="0px" y="0px"
	 viewBox="0 0 141.7 141.7" enable-background="new 0 0 141.7 141.7" xml:space="preserve">
<path fill="#FFFFFF" d="M125.3,30.7c1.5,1.5,2.7,3.4,3.7,5.9c1,2.5,1.6,4.7,1.6,6.8v89.7c0,4.1-3.3,7.5-7.5,7.5H18.6
	c-4.1,0-7.5-3.3-7.5-7.5V8.6c0-4.1,3.3-7.5,7.5-7.5h69.7c2.1,0,4.4,0.5,6.8,1.6c2.5,1,4.4,2.3,5.9,3.7L125.3,30.7z M90.8,11.7V41
	H120c-0.5-1.5-1.1-2.6-1.7-3.2L94,13.4C93.4,12.8,92.3,12.3,90.8,11.7L90.8,11.7z M120.7,130.6V50.9H88.3c-4.1,0-7.5-3.3-7.5-7.5
	V11.1H21.1v119.5H120.7z M80.7,84.5c1.7,1.3,3.9,2.8,6.5,4.4c3-0.4,6.1-0.5,9.1-0.5c7.6,0,12.2,1.2,13.8,3.8c0.9,1.2,0.9,2.5,0.2,4
	c0,0.1-0.2,0.2-0.2,0.3v0.1c-0.3,1.9-2.2,3-5.5,3c-5,0-12.5-2.3-19.1-5.7c-11.4,1.2-21.6,3.4-30.5,6.5
	c-7.9,13.6-14.2,20.4-18.8,20.4c-0.8,0-1.5-0.2-2.2-0.5l-1.9-0.9l-0.5-0.4c-0.5-0.5-0.7-1.5-0.5-2.8c0.9-4.1,5.8-10,14.6-14.6
	c0.7-0.5,1.3-0.3,1.8,0.5c0.1,0.1,0.2,0.2,0.2,0.3c2.7-4.4,5.4-9.5,8.3-15.3c3.5-7.1,6.2-13.9,8.1-20.4c-2.5-8.5-3.2-17.1-1.9-22.3
	c0.5-2.1,1.6-3.1,3.3-3.1h1.6h0.1c1.2,0,2.1,0.4,2.7,1.2c0.9,1.1,1.2,2.9,0.7,5.3c-0.1,0.3-0.2,0.5-0.3,0.6c0.1,0.2,0.1,0.4,0.1,0.6
	V51c-0.1,6.4-0.5,11.4-1.1,14.9C72.2,74.4,75.9,80.7,80.7,84.5L80.7,84.5z M35.8,116.5c2.7-1.2,6.2-5.4,10.7-12.3
	C41.2,108.3,37.2,113.4,35.8,116.5L35.8,116.5z M66.8,44.9c-0.8,2.2-0.9,5.6-0.2,10.3l0.5-3.4c0-0.2,0.2-1.2,0.5-3.3l0.3-0.6
	C68,47.7,68,47.7,68,47.6c0-0.1-0.1-0.2-0.1-0.2c-0.1-1.2-0.4-2.1-1-2.8c0,0.1,0,0.1-0.1,0.2V44.9z M57.2,96.3
	c7-2.8,14.4-4.9,22.1-6.3c-0.2-0.1-1.7-1.2-2.3-1.8c-4-3.5-7.2-8-9.9-13.7c-1.4,4.4-3.6,9.6-6.5,15.3L57.2,96.3z M107.4,95.1
	c-1.2-1.2-4.9-1.9-10.9-1.9c4,1.5,7.2,2.2,9.7,2.2c0.7,0,1.2,0,1.4-0.1C107.6,95.2,107.5,95.1,107.4,95.1z"/>
</svg>
