<?xml version="1.0" encoding="utf-8"?>
<!-- Generator: Adobe Illustrator 18.0.0, SVG Export Plug-In . SVG Version: 6.00 Build 0)  -->
<!DOCTYPE svg PUBLIC "-//W3C//DTD SVG 1.1//EN" "http://www.w3.org/Graphics/SVG/1.1/DTD/svg11.dtd">
<svg version="1.1" id="Layer_1" xmlns="http://www.w3.org/2000/svg" xmlns:xlink="http://www.w3.org/1999/xlink" x="0px" y="0px"
	 viewBox="0 0 141.7 141.7" enable-background="new 0 0 141.7 141.7" xml:space="preserve">
<path fill="#18A5A5" d="M125.3,30.7c1.5,1.5,2.7,3.4,3.7,5.9c1,2.5,1.6,4.7,1.6,6.8v89.6c0,4.1-3.3,7.5-7.5,7.5H18.6
	c-4.1,0-7.5-3.3-7.5-7.5V8.7c0-4.1,3.3-7.5,7.5-7.5h69.7c2.1,0,4.4,0.5,6.8,1.6c2.5,1,4.4,2.3,5.9,3.7L125.3,30.7z M90.8,11.8V41
	H120c-0.5-1.5-1.1-2.6-1.7-3.2L94,13.5C93.3,12.9,92.2,12.3,90.8,11.8L90.8,11.8z M120.6,130.6V51H88.3c-4.1,0-7.5-3.3-7.5-7.5V11.2
	H21.1v119.4H120.6z M43.5,112.4v8.2h25.4v-8.2h-7.2v-13h10.7c4,0,7-0.4,9.2-1.2c3.5-1.2,6.2-3.4,8.2-6.8c2.1-3.3,3.1-7.1,3.1-11.4
	c0-8.4-4.1-14.9-10.7-17.7c-2.5-1-5.8-1.5-10.1-1.5H43.5v8.3h7.2v43.2H43.5z M70.9,90.6h-9.3V69.8H71c2.7,0,4.8,0.5,6.5,1.4
	c2.9,1.7,4.4,4.7,4.4,8.9c0,4.6-1.6,7.7-4.8,9.3C75.4,90.2,73.4,90.6,70.9,90.6z"/>
</svg>
