<?xml version="1.0" encoding="utf-8"?>
<!-- Generator: Adobe Illustrator 18.0.0, SVG Export Plug-In . SVG Version: 6.00 Build 0)  -->
<!DOCTYPE svg PUBLIC "-//W3C//DTD SVG 1.1//EN" "http://www.w3.org/Graphics/SVG/1.1/DTD/svg11.dtd">
<svg version="1.1" id="Layer_1" xmlns="http://www.w3.org/2000/svg" xmlns:xlink="http://www.w3.org/1999/xlink" x="0px" y="0px"
	 viewBox="0 0 141.7 141.7" enable-background="new 0 0 141.7 141.7" xml:space="preserve">
<path fill="#18A5A5" d="M125.5,30.6c1.5,1.5,2.7,3.4,3.7,5.9c1,2.5,1.6,4.8,1.6,6.9v89.9c0,4.1-3.4,7.5-7.5,7.5H18.4
	c-4.1,0-7.5-3.4-7.5-7.5V8.5C11,4.3,14.3,1,18.4,1h69.9c2.1,0,4.4,0.5,6.9,1.6c2.5,1,4.4,2.3,5.9,3.7L125.5,30.6z M90.8,11.6v29.3
	h29.3c-0.5-1.5-1.1-2.6-1.7-3.2L94,13.3C93.4,12.7,92.3,12.1,90.8,11.6L90.8,11.6z M120.8,130.8V50.9H88.3c-4.1,0-7.5-3.4-7.5-7.5
	V11H20.9v119.8H120.8z M40.9,63.4c0-1.5,1-2.5,2.5-2.5h54.9c1.5,0,2.5,1,2.5,2.5v5c0,1.5-1,2.5-2.5,2.5H43.4c-1.5,0-2.5-1-2.5-2.5
	V63.4z M98.3,80.9c1.5,0,2.5,1,2.5,2.5v5c0,1.5-1,2.5-2.5,2.5H43.4c-1.5,0-2.5-1-2.5-2.5v-5c0-1.5,1-2.5,2.5-2.5H98.3z M98.3,100.8
	c1.5,0,2.5,1,2.5,2.5v5c0,1.5-1,2.5-2.5,2.5H43.4c-1.5,0-2.5-1-2.5-2.5v-5c0-1.5,1-2.5,2.5-2.5H98.3z"/>
</svg>
