<?xml version="1.0" encoding="utf-8"?>
<!-- Generator: Adobe Illustrator 18.0.0, SVG Export Plug-In . SVG Version: 6.00 Build 0)  -->
<!DOCTYPE svg PUBLIC "-//W3C//DTD SVG 1.1//EN" "http://www.w3.org/Graphics/SVG/1.1/DTD/svg11.dtd">
<svg version="1.1" id="Layer_1" xmlns="http://www.w3.org/2000/svg" xmlns:xlink="http://www.w3.org/1999/xlink" x="0px" y="0px"
	 viewBox="0 0 141.7 141.7" enable-background="new 0 0 141.7 141.7" xml:space="preserve">
<path fill="#18A5A5" d="M125.3,30.8c1.5,1.5,2.7,3.4,3.7,5.9c1,2.5,1.6,4.7,1.6,6.8V133c0,4.1-3.3,7.5-7.5,7.5H18.6
	c-4.1,0-7.5-3.3-7.5-7.5V8.7c0-4.1,3.3-7.5,7.5-7.5h69.6c2.1,0,4.4,0.5,6.8,1.6c2.5,1,4.4,2.3,5.9,3.7L125.3,30.8z M90.8,11.8V41
	H120c-0.5-1.5-1.1-2.6-1.7-3.2L93.9,13.5C93.3,12.9,92.2,12.4,90.8,11.8L90.8,11.8z M120.6,130.5V51H88.3c-4.1,0-7.5-3.3-7.5-7.5
	V11.2H21.1v119.3H120.6z M44.5,112.4v8.2h21.8v-8.2h-5.8l8-12.5c1-1.4,1.4-2.6,1.6-2.6h0.2c0.1,0.2,0.2,0.5,0.4,0.8
	c0.3,0.5,0.8,1.2,1.3,1.9l8.3,12.5h-5.9v8.2h22.6v-8.2h-5.3L76.8,91.1L92,69.2h5.2v-8.3H75.5v8.3h5.8l-8,12.4
	c-0.4,0.7-1.2,1.9-1.5,2.3l-0.2,0.2h-0.2c-0.1-0.2-0.2-0.5-0.4-0.8c-0.3-0.5-0.8-1.2-1.3-1.8l-8.2-12.4h5.9v-8.3H44.9v8.3h5.3
	l14.7,21.1l-15.1,22H44.5z"/>
</svg>
