<?xml version="1.0" encoding="utf-8"?>
<!-- Generator: Adobe Illustrator 18.0.0, SVG Export Plug-In . SVG Version: 6.00 Build 0)  -->
<!DOCTYPE svg PUBLIC "-//W3C//DTD SVG 1.1//EN" "http://www.w3.org/Graphics/SVG/1.1/DTD/svg11.dtd">
<svg version="1.1" id="Layer_1" xmlns="http://www.w3.org/2000/svg" xmlns:xlink="http://www.w3.org/1999/xlink" x="0px" y="0px"
	 viewBox="0 0 141.7 141.7" enable-background="new 0 0 141.7 141.7" xml:space="preserve">
<path fill="#19A5A5" d="M61.1,31.7v-9.8h-9.8v9.8H61.1z M70.9,41.5v-9.8h-9.8v9.8H70.9z M61.1,51.3v-9.8h-9.8v9.8H61.1z M70.9,61.1
	v-9.8h-9.8v9.8H70.9z M124.4,31.4c1.5,1.5,2.7,3.4,3.7,5.8c1,2.4,1.5,4.7,1.5,6.7v88c0,4.1-3.3,7.3-7.3,7.3H19.5
	c-4.1,0-7.3-3.3-7.3-7.3V9.7c0-4.1,3.3-7.3,7.3-7.3H88c2.1,0,4.3,0.5,6.7,1.5c2.4,1,4.4,2.2,5.8,3.7L124.4,31.4z M90.4,12.8v28.7
	h28.7c-0.5-1.5-1.1-2.5-1.7-3.1L93.6,14.5C93,13.8,91.9,13.3,90.4,12.8L90.4,12.8z M119.8,129.6V51.3H88c-4.1,0-7.3-3.3-7.3-7.3
	V12.2h-9.8V22h-9.8v-9.8H21.9v117.4H119.8z M71.9,74.5l8.2,26.7c0.4,1.4,0.6,2.7,0.6,4c0,4.2-1.8,7.7-5.6,10.5
	c-3.7,2.8-8.3,4.1-14,4.1s-10.3-1.4-14.1-4.1c-3.7-2.8-5.5-6.3-5.5-10.5c0-1.3,0.2-2.6,0.6-4c1.1-3.2,4.1-13.3,9.2-30.3v-9.8h9.8
	v9.8h6C69.3,70.9,71.2,72.3,71.9,74.5L71.9,74.5z M54.1,108.5c1.9,1,4.3,1.5,7,1.5s5-0.5,6.9-1.5c3.9-1.9,3.9-5,0-6.9
	c-1.9-1-4.2-1.5-6.9-1.5s-5,0.5-7,1.5C50.4,103.6,50.4,106.6,54.1,108.5z"/>
</svg>
