<?xml version="1.0" encoding="utf-8"?>
<!-- Generator: Adobe Illustrator 19.2.0, SVG Export Plug-In . SVG Version: 6.00 Build 0)  -->
<svg version="1.1" id="Layer_2" xmlns="http://www.w3.org/2000/svg" xmlns:xlink="http://www.w3.org/1999/xlink" x="0px" y="0px"
	 viewBox="0 0 141.7 141.7" style="enable-background:new 0 0 141.7 141.7;" xml:space="preserve">
<style type="text/css">
	.st0{fill:#CCCCCC;}
</style>
<path class="st0" d="M80.4,105.8v10.4c0,1.4-0.5,2.7-1.5,3.7s-2.2,1.5-3.7,1.5H64.8c-1.4,0-2.7-0.5-3.7-1.5c-1-1-1.5-2.2-1.5-3.7
	v-10.4c0-1.4,0.5-2.7,1.5-3.7c1-1,2.2-1.5,3.7-1.5h10.4c1.4,0,2.7,0.5,3.7,1.5C79.9,103.1,80.4,104.4,80.4,105.8z M80.2,65.9v10.2
	c0,1.4-0.5,2.6-1.5,3.6c-1,1-2.2,1.5-3.6,1.5H64.9c-1.4,0-2.6-0.5-3.6-1.5c-1-1-1.5-2.2-1.5-3.6V65.9c0-1.4,0.5-2.6,1.5-3.6
	c1-1,2.2-1.5,3.6-1.5h10.2c1.4,0,2.6,0.5,3.6,1.5C79.7,63.2,80.2,64.5,80.2,65.9z M80.2,25.9v10.2c0,1.4-0.5,2.6-1.5,3.6
	c-1,1-2.2,1.5-3.6,1.5H64.9c-1.4,0-2.6-0.5-3.6-1.5c-1-1-1.5-2.2-1.5-3.6V25.9c0-1.4,0.5-2.6,1.5-3.6c1-1,2.2-1.5,3.6-1.5h10.2
	c1.4,0,2.6,0.5,3.6,1.5C79.7,23.3,80.2,24.5,80.2,25.9z"/>
</svg>
