<?xml version="1.0" encoding="utf-8"?>
<!-- Generator: Adobe Illustrator 19.2.0, SVG Export Plug-In . SVG Version: 6.00 Build 0)  -->
<svg version="1.1" id="Layer_2" xmlns="http://www.w3.org/2000/svg" xmlns:xlink="http://www.w3.org/1999/xlink" x="0px" y="0px"
	 viewBox="0 0 141.7 141.7" style="enable-background:new 0 0 141.7 141.7;" xml:space="preserve">
<path d="M95.3,62.6c0-9.3-3.3-17.2-9.9-23.8c-6.6-6.6-14.5-9.9-23.8-9.9s-17.2,3.3-23.8,9.9s-9.9,14.5-9.9,23.8s3.3,17.2,9.9,23.8
	c6.6,6.6,14.5,9.9,23.8,9.9s17.2-3.3,23.8-9.9C92,79.8,95.3,71.9,95.3,62.6z M133.8,125.1c0,2.6-1,4.9-2.9,6.8
	c-1.9,1.9-4.2,2.9-6.8,2.9c-2.7,0-5-1-6.8-2.9l-25.8-25.7c-9,6.2-19,9.3-30,9.3c-7.2,0-14-1.4-20.6-4.2c-6.5-2.8-12.2-6.5-16.9-11.3
	s-8.5-10.4-11.3-16.9S8.7,69.8,8.7,62.6s1.4-14,4.2-20.6s6.5-12.2,11.3-16.9S34.5,16.6,41,13.8s13.4-4.2,20.6-4.2s14,1.4,20.6,4.2
	s12.2,6.5,16.9,11.3c4.7,4.7,8.5,10.4,11.3,16.9s4.2,13.4,4.2,20.6c0,11-3.1,21-9.3,30l25.8,25.8
	C132.8,120.2,133.8,122.5,133.8,125.1z"/>
</svg>
