<?xml version="1.0" encoding="utf-8"?>
<!-- Generator: Adobe Illustrator 19.2.0, SVG Export Plug-In . SVG Version: 6.00 Build 0)  -->
<svg version="1.1" id="Layer_2" xmlns="http://www.w3.org/2000/svg" xmlns:xlink="http://www.w3.org/1999/xlink" x="0px" y="0px"
	 viewBox="0 0 141.7 141.7" style="enable-background:new 0 0 141.7 141.7;" xml:space="preserve">
<path d="M105.6,80.8c6.9,0,12.7,2.4,17.5,7.2c4.8,4.8,7.2,10.7,7.2,17.5c0,6.9-2.4,12.7-7.2,17.5c-4.8,4.8-10.7,7.2-17.5,7.2
	c-6.9,0-12.7-2.4-17.5-7.2c-4.8-4.8-7.2-10.7-7.2-17.5c0-0.6,0.1-1.5,0.2-2.6L53,89c-4.7,4.4-10.4,6.7-16.9,6.7
	c-6.9,0-12.7-2.4-17.5-7.2s-7.2-10.7-7.2-17.5s2.4-12.7,7.2-17.5s10.7-7.2,17.5-7.2c6.5,0,12.1,2.2,16.9,6.7l27.9-13.9
	c-0.1-1.1-0.2-2-0.2-2.6c0-6.9,2.4-12.7,7.2-17.5c4.8-4.8,10.7-7.2,17.5-7.2c6.9,0,12.7,2.4,17.5,7.2c4.8,4.8,7.2,10.7,7.2,17.5
	s-2.4,12.7-7.2,17.5c-4.8,4.8-10.7,7.2-17.5,7.2c-6.5,0-12.1-2.2-16.9-6.7L60.8,68.2c0.1,1.1,0.2,2,0.2,2.6s-0.1,1.5-0.2,2.6
	l27.9,13.9C93.4,83,99.1,80.8,105.6,80.8z"/>
</svg>
