<?xml version="1.0" encoding="utf-8"?>
<!-- Generator: Adobe Illustrator 21.0.2, SVG Export Plug-In . SVG Version: 6.00 Build 0)  -->
<svg version="1.1" id="Layer_1" xmlns="http://www.w3.org/2000/svg" xmlns:xlink="http://www.w3.org/1999/xlink" x="0px" y="0px"
	 viewBox="0 0 640 480" style="enable-background:new 0 0 640 480;" xml:space="preserve">
<style type="text/css">
	.st0{fill:#5E9AA3;}
	.st1{fill:#50858D;}
	.st2{fill:#EEC74A;}
	.st3{fill:#E5BB31;}
	.st4{fill:#41656F;}
	.st5{fill:#2EB699;}
	.st6{fill:#4CBFA6;}
</style>
<g>
	<g>
		<polygon class="st0" points="517.8,440 427.2,403.1 318.7,440 211.3,403.1 121.1,440 121.1,76.4 209.8,39.9 318.7,76.4 
			428.6,39.9 517.8,76.4 		"/>
	</g>
	<polygon class="st1" points="207.4,58.7 207.4,383.4 318.7,421.3 319.7,97 	"/>
	<polygon class="st1" points="431.5,58.7 431.5,383.4 501,411.3 501,87 	"/>
	<g>
		<path class="st2" d="M397.4,251.5c-41.3-24-25.9-57.6-78.2-49.9l-0.5,171.3c9.1-3.8,12.5-19.7,31.2-32.6
			c28.3-19.2,41.3-1.4,52.8-24.5C414.2,292.8,446.3,279.8,397.4,251.5z"/>
		<path class="st3" d="M281.8,210.7c0,0-41.3,37.4-45.1,55.2c-3.8,17.7,16.8,33.6,28.3,52.8c11.5,19.2-2.4,29.7,30.7,48.9
			c11.5,6.7,18.2,7.7,23,5.8l0.5-171.3C309.6,203.1,297.2,205.9,281.8,210.7z"/>
	</g>
	<g>
		<g>
			<path class="st4" d="M420,240.9c0,0-23.5,17.3-26.9,52.8l-13.9,0.5c0,0,13.9-40.3,38.9-56.1C436.3,227.5,420,240.9,420,240.9z"/>
			<g>
				<path class="st5" d="M427.2,225.1c0,0,11-0.5,17.3,7.7c-2.4,0-12.5-0.5-16.3,1.4c0.5,0.5,12,3.4,11.5,24.5
					c0,0.5-8.2-11.5-12-13.9c0,0.5,2.9,15.8-9.6,26.9c0,0,0.5-11,0-15.8s-1-16.3-1-16.3s-9.6,3.8-18.7,3.8c-8.2,1-12.5,3.4-12.5,3.4
					s10.1-15.4,20.1-15.4c-1.4,0-16.3-3.4-19.7-2.9c-0.5,0.5,4.8-6.7,21.6-7.2c0,0-1.4-6.2-8.2-9.1c1.4,0.5,13-1,20.1,9.1
					c0,0.5,2.4-12,2.4-12S430.5,215.5,427.2,225.1z"/>
			</g>
		</g>
	</g>
	<g>
		<g>
			<path class="st4" d="M281.3,304.8c0,0,22.1,16.3,25.4,50.4l13.4,0.5c0,0-13.4-38.9-37.4-53.7C266,291.8,281.3,304.8,281.3,304.8z
				"/>
			<g>
				<path class="st5" d="M274.6,289.4c0,0-10.6-0.5-16.8,7.2c1.9,0,12-0.5,15.8,1c-0.5,0.5-11.5,3.4-11,23.5c0,0.5,7.7-11,11.5-13
					c0,0.5-2.9,14.9,9.1,25.9c0,0-0.5-10.6,0-14.9c0.5-4.3,1-15.4,1-15.4s9.1,3.8,17.7,3.4c7.7,1,12,3.4,12,3.4s-9.6-14.9-19.2-14.9
					c1,0,15.4-3.4,19.2-2.4c0.5,0.5-4.8-6.7-20.6-7.2c0,0,1.4-5.8,7.7-8.6c-1.4,0.5-12.5-1-19.2,8.6c0,0.5-2.4-11.5-2.4-11.5
					S271.7,280.3,274.6,289.4z"/>
			</g>
		</g>
	</g>
	<g>
		<path class="st2" d="M199.8,168.5c-5.8,0-8.6,10.1-8.6,10.1c-0.5,2.4-5.8,8.2,1.4,11.5c7.2,2.9,9.1,8.6,13.9,15.4
			c0.5,0.5,0.5,0.5,1,1v-39.3C205,167.6,202.6,168.5,199.8,168.5z"/>
		<path class="st3" d="M218.5,193.5c-3.8-7.7-2.4-15.8-1-22.5c1-6.2,0-13.9-2.9-9.6c-1.9,2.4-4.3,4.3-7.2,5.3v39.3
			C212.2,210.2,221.8,200.7,218.5,193.5z"/>
	</g>
	<g>
		<g>
			<path class="st4" d="M187.3,136.8c0,0-3.4,23.5,20.6,41.3c-8.6,0-9.6-0.5-11.5-0.5c0,0-13.4-17.3-12-41.3
				C185.9,121.5,187.3,136.8,187.3,136.8z"/>
			<path class="st6" d="M185.4,122.5c0,0,6.2-5.3,13.4-2.9c-1.4,1-7.7,5.3-9.1,7.7c0.5,0,8.6-3.4,17.3,9.1c0,0-9.6-2.9-13-2.9
				c0,0,8.6,7.7,6.2,19.7c0,0-4.3-6.7-6.7-9.1s-7.7-9.1-7.7-9.1s-3.8,6.2-9.1,10.1c-4.3,3.8-5.8,7.2-5.8,7.2s-1-13.4,5.3-17.7
				c-1,0.5-11,5.3-13,7.2c0,0.5,0-6.2,9.6-13.9c0,0-3.4-2.9-8.6-1.9c1-0.5,7.2-6.2,15.8-3.4l-3.8-8.2
				C176.3,114.3,183.5,115.3,185.4,122.5z"/>
		</g>
	</g>
</g>
</svg>
