<?xml version="1.0" encoding="UTF-8" standalone="no"?>
<!-- Generator: Adobe Illustrator 21.0.0, SVG Export Plug-In . SVG Version: 6.00 Build 0)  -->

<svg
   xmlns:dc="http://purl.org/dc/elements/1.1/"
   xmlns:cc="http://creativecommons.org/ns#"
   xmlns:rdf="http://www.w3.org/1999/02/22-rdf-syntax-ns#"
   xmlns:svg="http://www.w3.org/2000/svg"
   xmlns="http://www.w3.org/2000/svg"
   xmlns:xlink="http://www.w3.org/1999/xlink"
   xmlns:sodipodi="http://sodipodi.sourceforge.net/DTD/sodipodi-0.dtd"
   xmlns:inkscape="http://www.inkscape.org/namespaces/inkscape"
   version="1.1"
   x="0px"
   y="0px"
   viewBox="0 0 595.3 841.9"
   style="enable-background:new 0 0 595.3 841.9;"
   xml:space="preserve"
   id="svg3785"
   inkscape:version="0.91 r13725"
   sodipodi:docname="s8 mockup.svg"><metadata
     id="metadata3874"><rdf:RDF><cc:Work
         rdf:about=""><dc:format>image/svg+xml</dc:format><dc:type
           rdf:resource="http://purl.org/dc/dcmitype/StillImage" /><dc:title></dc:title></cc:Work></rdf:RDF></metadata><defs
     id="defs3872"><linearGradient
       inkscape:collect="always"
       id="linearGradient4199"><stop
         style="stop-color:#ffffff;stop-opacity:1;"
         offset="0"
         id="stop4201" /><stop
         style="stop-color:#f1f1f1;stop-opacity:1"
         offset="1"
         id="stop4203" /></linearGradient><linearGradient
       inkscape:collect="always"
       xlink:href="#linearGradient4286"
       id="linearGradient4530"
       gradientUnits="userSpaceOnUse"
       gradientTransform="translate(-545.68399,-47.605041)"
       x1="1378.5721"
       y1="411.07629"
       x2="1235.7151"
       y2="411.07632" /><linearGradient
       inkscape:collect="always"
       id="linearGradient4286"><stop
         style="stop-color:#ffffff;stop-opacity:1;"
         offset="0"
         id="stop4288" /><stop
         style="stop-color:#ffffff;stop-opacity:0;"
         offset="1"
         id="stop4290" /></linearGradient><linearGradient
       inkscape:collect="always"
       xlink:href="#linearGradient4286"
       id="linearGradient4532"
       gradientUnits="userSpaceOnUse"
       gradientTransform="matrix(-1,0,0,1,1729.7463,-47.605041)"
       x1="1378.5721"
       y1="411.07629"
       x2="1235.7151"
       y2="411.07632" /><radialGradient
       inkscape:collect="always"
       xlink:href="#linearGradient4199"
       id="radialGradient4205"
       cx="298.71429"
       cy="424.04287"
       fx="298.71429"
       fy="424.04287"
       r="295"
       gradientTransform="matrix(1,0,0,1.4176755,0,-178.18375)"
       gradientUnits="userSpaceOnUse" /></defs><sodipodi:namedview
     pagecolor="#ffffff"
     bordercolor="#666666"
     borderopacity="1"
     objecttolerance="10"
     gridtolerance="10"
     guidetolerance="10"
     inkscape:pageopacity="0"
     inkscape:pageshadow="2"
     inkscape:window-width="1280"
     inkscape:window-height="657"
     id="namedview3870"
     showgrid="false"
     showborder="true"
     inkscape:zoom="0.7"
     inkscape:cx="432.64391"
     inkscape:cy="298.56937"
     inkscape:window-x="-8"
     inkscape:window-y="-8"
     inkscape:window-maximized="1"
     inkscape:current-layer="svg3785"
     inkscape:object-nodes="true" /><style
     type="text/css"
     id="style3787">
	.st0{display:none;}
	.st1{display:inline;opacity:0.6863;}
	.st2{fill:none;}
	.st3{fill:#2D2D2D;stroke:#2D2D2D;stroke-width:10;}
	.st4{fill:none;stroke:#2D2D2D;stroke-width:10;}
	.st5{fill:#3A3A3A;}
	.st6{fill:#1D2830;}
	.st7{fill:#515151;}
	.st8{fill:#2D2D2D;}
</style><rect
     style="opacity:1;fill:url(#radialGradient4205);fill-opacity:1;stroke:none;stroke-width:10;stroke-linecap:round;stroke-linejoin:round;stroke-miterlimit:4;stroke-dasharray:none;stroke-opacity:1"
     id="rect4197"
     width="590"
     height="836.42853"
     x="3.7142859"
     y="4.7571673" /><g
     id="Layer_2"
     class="st0"><g
       id="layer1"
       inkscape:groupmode="layer"
       inkscape:label="Layer 1"
       sodipodi:insensitive="true"
       class="st1"><image
         sodipodi:absref="C:\Users\apvarun\Desktop\S8 Mockup\B22DCFC3.jpg"
         xlink:href="B22DCFC3.jpg"
         style="overflow:visible;enable-background:new    ;"
         width="1200"
         height="900"
         id="image3793"
         transform="matrix(0.8 0 0 0.8 -246 9.0326)" /></g></g><g
     id="g4062"
     transform="matrix(1.1498556,0,0,1.1498556,-60.265983,-110.10864)"><g
       id="g3956"><g
         id="g3925"
         transform="matrix(0.56382211,0,0,0.56382211,36.810656,299.69783)"><rect
           style="opacity:1;fill:#4d4d4d;fill-opacity:1;stroke:none;stroke-width:10;stroke-linecap:round;stroke-linejoin:round;stroke-miterlimit:4;stroke-dasharray:none;stroke-opacity:1"
           id="rect3910"
           width="280"
           height="571.42859"
           x="94.85717"
           y="81.900024" /><text
           xml:space="preserve"
           style="font-style:normal;font-weight:normal;font-size:45px;line-height:125%;font-family:sans-serif;text-align:center;letter-spacing:0px;word-spacing:0px;text-anchor:middle;fill:#000000;fill-opacity:1;stroke:none;stroke-width:1px;stroke-linecap:butt;stroke-linejoin:miter;stroke-opacity:1"
           x="236.086"
           y="329.04288"
           id="text3912"
           sodipodi:linespacing="125%"><tspan
             sodipodi:role="line"
             x="236.086"
             y="329.04288"
             id="tspan3914"
             style="font-style:normal;font-variant:normal;font-weight:bold;font-stretch:normal;font-size:30px;font-family:'Prosto Sans';-inkscape-font-specification:'Prosto Sans Bold';fill:#ffffff">PLACE YOUR</tspan><tspan
             sodipodi:role="line"
             x="236.086"
             y="366.54288"
             id="tspan3916"
             style="font-style:normal;font-variant:normal;font-weight:bold;font-stretch:normal;font-size:30px;font-family:'Prosto Sans';-inkscape-font-specification:'Prosto Sans Bold';fill:#ffffff">IMAGE</tspan><tspan
             sodipodi:role="line"
             x="236.086"
             y="404.04288"
             id="tspan3918"
             style="font-style:normal;font-variant:normal;font-weight:bold;font-stretch:normal;font-size:30px;font-family:'Prosto Sans';-inkscape-font-specification:'Prosto Sans Bold';fill:#ffffff">HERE</tspan></text>
</g><g
         id="g3949"
         transform="matrix(0.56382211,0,0,0.56382211,36.810656,299.69783)"><g
           id="g3918"><g
             id="svg2"
             inkscape:version="0.91 r13725"
             sodipodi:docname="s8 mockup.svg"
             style="stroke:#1a1a1a"><sodipodi:namedview
               bordercolor="#666666"
               borderopacity="1.0"
               id="base"
               inkscape:current-layer="layer2"
               inkscape:cx="-130.78752"
               inkscape:cy="413.23718"
               inkscape:document-units="px"
               inkscape:pageopacity="0.0"
               inkscape:pageshadow="2"
               inkscape:window-height="657"
               inkscape:window-maximized="1"
               inkscape:window-width="1280"
               inkscape:window-x="-8"
               inkscape:window-y="-8"
               inkscape:zoom="0.7"
               pagecolor="#ffffff"
               showborder="false"
               showgrid="false" /><g
               id="g3794"
               style="stroke:#1a1a1a"><path
                 style="fill:none;stroke:#1a1a1a"
                 inkscape:connector-curvature="0"
                 class="st2"
                 d="m 378.5,186.7 c 0,-8 0,-15.6 0,-22.8 0,2.6 0,5.2 0,7.9 0,4.7 0,9.7 0,14.9 z"
                 id="path3796" /><path
                 style="fill:none;stroke:#1a1a1a"
                 inkscape:connector-curvature="0"
                 class="st2"
                 d="m 378.5,220 c 0,-4.8 0,-9.6 0,-14.2 0,4.3 0,8.7 0,13.2 0,0.3 0,0.7 0,1 z"
                 id="path3798" /><path
                 style="fill:none;stroke:#1a1a1a"
                 inkscape:connector-curvature="0"
                 class="st2"
                 d="m 378.4,309.5 c 0,-5.5 0,-11 0,-16.5 0,4.6 0,9.3 0,14 l 0,2.5 z"
                 id="path3800" /><path
                 style="fill:none;stroke:#1a1a1a"
                 inkscape:connector-curvature="0"
                 class="st2"
                 d="m 378.3,318.6 c 0,-1.7 0,-3.4 0,-5.1 0,0.6 0,1.3 0,1.9 l 0,3.2 z"
                 id="path3802" /><path
                 style="fill:none;stroke:#1a1a1a"
                 inkscape:connector-curvature="0"
                 class="st2"
                 d="m 378.4,275.7 c 0,-5.3 0,-10.6 0,-15.7 0,4.2 0,8.5 0,12.8 0,0.9 0,1.9 0,2.9 z"
                 id="path3804" /><path
                 style="fill:none;stroke:#1a1a1a"
                 inkscape:connector-curvature="0"
                 class="st2"
                 d="m 378.5,157.9 c 0,-6.6 0,-12.9 0,-18.8 0,4.7 0,9.6 0,14.7 0,1.3 0,2.7 0,4.1 z"
                 id="path3806" /><path
                 style="fill:none;stroke:#1a1a1a"
                 inkscape:connector-curvature="0"
                 class="st2"
                 d="m 378.3,324 0,2.9 c 0,3.3 0,6.7 0,10.1 0,-4.7 0,-9.4 0,-14.1 0,0.4 0,0.8 0,1.1 z"
                 id="path3808" /><path
                 style="fill:none;stroke:#1a1a1a"
                 inkscape:connector-curvature="0"
                 class="st2"
                 d="m 378.6,116.8 c 0,3.1 0,6.5 0,10 0,-3.6 0,-6.9 0,-10 z"
                 id="path3810" /><path
                 style="fill:#1a1a1a;stroke:#1a1a1a;stroke-width:10"
                 inkscape:connector-curvature="0"
                 class="st3"
                 d="m 128.9,82 213.7,0 c 0,0 34.9,3 36,34.6 0,-13.9 0,-23.8 0,-28.6 0,-36.6 -22.6,-39.8 -36,-40.1 -53,-1.1 -213.6,0 -213.7,0 -38.9,0 -37.7,38.9 -37.7,38.9 l 0,30 C 91.1,113.3 92.2,82 128.9,82 Z"
                 id="path3812" /><path
                 style="fill:#1a1a1a;stroke:#1a1a1a;stroke-width:10"
                 inkscape:connector-curvature="0"
                 class="st3"
                 d="m 335.2,654 -201.8,0 c 0,0 -42.3,-1 -42.3,-32 l 0,24.7 c 0,34.3 42.3,35.4 42.3,35.4 l 201.7,0 c 22.5,0 43,-9.2 43,-49.6 l 0,-23.3 c 0,36.5 -20.5,44.8 -42.9,44.8 z"
                 id="path3814" /><path
                 style="fill:none;stroke:#1a1a1a;stroke-width:10"
                 inkscape:connector-curvature="0"
                 class="st4"
                 d="m 378.2,495.3 c 0,27.3 0,53.6 0,78 0,-24.8 0,-51.1 0,-78 z"
                 id="path3816" /><path
                 style="fill:none;stroke:#1a1a1a;stroke-width:10"
                 inkscape:connector-curvature="0"
                 class="st4"
                 d="m 378.3,324 c 0,-0.4 0,-0.7 0,-1.1 0,-1.4 0,-2.9 0,-4.3 l 0,-3.2 c 0,-0.6 0,-1.3 0,-1.9 0,-1.4 0,-2.7 0,-4.1 l 0,-2.4 c 0,-4.7 0,-9.3 0,-14 0,-5.8 0,-11.6 0,-17.3 0,-1 0,-2 0,-3 0,-4.3 0,-8.6 0,-12.8 0,-13.8 0,-27.2 0,-39.9 0,-0.3 0,-0.7 0,-1 0,-4.5 0,-8.9 0,-13.2 0,-6.6 0,-13 0,-19.1 0,-5.1 0,-10.1 0,-14.9 0,-2.7 0,-5.3 0,-7.9 0,-2 0,-4 0,-6 0,-1.4 0,-2.7 0,-4.1 0,-5.2 0,-10.1 0,-14.7 0,-4.3 0,-8.4 0,-12.3 0,-3.5 0,-6.9 0,-10 0,-0.1 0,-0.1 0,-0.2 C 377.2,85 342.3,82 342.3,82 l -213.4,0 c -36.7,0 -37.7,31.3 -37.7,34.7 0,0.2 0,0.3 0,0.3 l 0,505 c 0,30.9 42.3,32 42.3,32 l 201.7,0 c 22.5,0 43,-8.3 43,-44.7 0,-11.4 0,-23.5 0,-36 0,-24.4 0,-50.7 0,-78 0,-9 0,-18 0,-27.2 0,-2.7 0,-5.4 0,-8.1 0,-5.3 0,-10.7 0,-16 0,-32.3 0.1,-64.9 0.1,-96.5 0,-3.5 0,-7 0,-10.5 0,-3.4 0,-6.7 0,-10.1 l 0,-2.9 z"
                 id="path3818" /><path
                 style="fill:none;stroke:#1a1a1a;stroke-width:10"
                 inkscape:connector-curvature="0"
                 class="st4"
                 d="m 378.3,322 0,-0.3 c 0,0.1 0,0.3 0,0.4 0,-0.1 0,-0.1 0,-0.1 z"
                 id="path3820" /><path
                 style="fill:none;stroke:#1a1a1a;stroke-width:10"
                 inkscape:connector-curvature="0"
                 class="st4"
                 d="m 378.3,337 c 0,-5 0,-10 0,-15 0,0.3 0,0.6 0,0.9 0,4.7 0,9.4 0,14.1 z"
                 id="path3822" /><path
                 style="fill:none;stroke:#1a1a1a;stroke-width:10"
                 inkscape:connector-curvature="0"
                 class="st4"
                 d="m 378.6,116.8 c 0,3.1 0,6.5 0,10 0,3.9 0,8 0,12.3 0,5.9 0,12.2 0,18.8 0,2 0,4 0,6 0,7.2 0,14.9 0,22.8 0,6.2 0,12.6 0,19.1 0,4.6 0,9.4 0,14.2 0,2.9 0,5.8 0,8.7 0,3 0,6.1 0,9.2 0,3.1 0,6.2 0,9.4 0,4.2 0,8.4 0,12.6 0,5.2 0,10.4 0,15.7 0,2.8 0,5.5 0,8.3 0,3 0,6 0,9 0,5.4 0,10.9 0,16.5 l 0,2.5 c 0,0.5 0,1 0,1.6 0,1.7 0,3.4 0,5.1 l 0,3 c 0.1,-101.3 0.3,-186.7 0.3,-203.5 -0.3,-0.4 -0.3,-0.9 -0.3,-1.3 z"
                 id="path3824" /><path
                 style="fill:none;stroke:#1a1a1a;stroke-width:10"
                 inkscape:connector-curvature="0"
                 class="st4"
                 d="m 378.4,284 c 0,-2.8 0,-5.5 0,-8.3 0,5.7 0,11.5 0,17.3 0,-3 0,-6 0,-9 z"
                 id="path3826" /><path
                 style="fill:none;stroke:#1a1a1a;stroke-width:10"
                 inkscape:connector-curvature="0"
                 class="st4"
                 d="m 378.4,312 0,-2.5 c 0,1.4 0,2.7 0,4.1 0,-0.5 0,-1.1 0,-1.6 z"
                 id="path3828" /><path
                 style="fill:none;stroke:#1a1a1a;stroke-width:10"
                 inkscape:connector-curvature="0"
                 class="st4"
                 d="m 378.3,322.9 c 0,-0.3 0,-0.6 0,-0.9 0,-0.1 0,-0.3 0,-0.4 l 0,-3 c 0,1.5 0,2.9 0,4.3 z"
                 id="path3830" /><path
                 style="fill:none;stroke:#1a1a1a;stroke-width:10"
                 inkscape:connector-curvature="0"
                 class="st4"
                 d="m 378.6,126.8 c 0,3.9 0,8 0,12.3 0,-4.4 0,-8.5 0,-12.3 z"
                 id="path3832" /><path
                 style="fill:none;stroke:#1a1a1a;stroke-width:10"
                 inkscape:connector-curvature="0"
                 class="st4"
                 d="m 378.4,247.3 c 0,-3.2 0,-6.3 0,-9.4 0,-3.1 0,-6.2 0,-9.2 0,-2.9 0,-5.8 0,-8.7 0,12.8 0,26.1 0,39.9 0,-4.2 0,-8.4 0,-12.6 z"
                 id="path3834" /><path
                 style="fill:none;stroke:#1a1a1a;stroke-width:10"
                 inkscape:connector-curvature="0"
                 class="st4"
                 d="m 378.5,186.7 c 0,6.2 0,12.6 0,19.1 0,-6.6 0,-13 0,-19.1 z"
                 id="path3836" /><path
                 style="fill:none;stroke:#1a1a1a;stroke-width:10"
                 inkscape:connector-curvature="0"
                 class="st4"
                 d="m 378.5,157.9 c 0,2 0,3.9 0,6 0,-2.1 0,-4.1 0,-6 z"
                 id="path3838" /></g></g><g
             id="buttons"
             style="fill:#1a1a1a"><path
               style="fill:#1a1a1a"
               inkscape:connector-curvature="0"
               class="st8"
               d="m 383.9,288 0,0 c -1.3,0 -2.4,-1.1 -2.4,-2.4 l 0,-39 c 0,-1.3 1.1,-2.4 2.4,-2.4 l 0,0 c 1.3,0 2.4,1.1 2.4,2.4 l 0,39 c 0,1.3 -1.1,2.4 -2.4,2.4 z"
               id="path3864" /><path
               style="fill:#1a1a1a"
               inkscape:connector-curvature="0"
               class="st8"
               d="m 86.7,322.7 0,0 c 1.3,0 2.3,-1 2.3,-2.3 l 0,-37.7 c 0,-1.3 -1,-2.3 -2.3,-2.3 l 0,0 c -1.3,0 -2.3,1 -2.3,2.3 l 0,37.7 c -0.1,1.2 1,2.3 2.3,2.3 z"
               id="path3866" /><path
               style="fill:#1a1a1a"
               inkscape:connector-curvature="0"
               class="st8"
               d="m 86.7,155.7 0,0 c 1.3,0 2.3,1 2.3,2.3 l 0,83.7 c 0,1.3 -1,2.3 -2.3,2.3 l 0,0 c -1.3,0 -2.3,-1.1 -2.3,-2.3 l 0,-83.7 c -0.1,-1.3 1,-2.3 2.3,-2.3 z"
               id="path3868" /></g></g><g
           id="camera_and_sensors"><circle
             id="circle3841"
             r="3.5"
             cy="68.5"
             cx="135.5"
             class="st5"
             style="fill:#3a3a3a" /><circle
             id="circle3843"
             r="4.3000002"
             cy="69.599998"
             cx="174.60001"
             class="st5"
             style="fill:#3a3a3a" /><circle
             id="circle3845"
             r="2.9000001"
             cy="69.599998"
             cx="174.60001"
             class="st6"
             style="fill:#1d2830" /><circle
             id="circle3847"
             r="4.3000002"
             cy="69.599998"
             cx="189.5"
             class="st6"
             style="fill:#1d2830" /><circle
             id="circle3849"
             r="6.5999999"
             cy="68.099998"
             cx="153.10001"
             class="st6"
             style="fill:#1d2830" /><circle
             id="circle3851"
             r="7.3000002"
             cy="68.800003"
             cx="291.29999"
             class="st5"
             style="fill:#3a3a3a" /><circle
             id="circle3853"
             r="7.3000002"
             cy="68.800003"
             cx="291.29999"
             class="st5"
             style="fill:#3a3a3a" /><circle
             id="circle3855"
             r="4.3000002"
             cy="68.800003"
             cx="291.29999"
             class="st6"
             style="fill:#1d2830" /><circle
             id="circle3857"
             r="4.3000002"
             cy="68.800003"
             cx="291.29999"
             class="st6"
             style="fill:#1d2830" /><circle
             id="circle3859"
             r="4.9000001"
             cy="69.5"
             cx="315.5"
             class="st6"
             style="fill:#1d2830" /><path
             id="path3861"
             d="m 252.9,72.5 -35.4,0 c -1.6,0 -2.9,-1.3 -2.9,-2.9 l 0,0 c 0,-1.6 1.3,-2.9 2.9,-2.9 l 35.4,0 c 1.6,0 2.9,1.3 2.9,2.9 l 0,0 c 0,1.6 -1.3,2.9 -2.9,2.9 z"
             class="st7"
             inkscape:connector-curvature="0"
             style="fill:#515151" /></g></g></g><text
       sodipodi:linespacing="125%"
       id="text3944"
       y="279.82715"
       x="169.43477"
       style="font-style:normal;font-weight:normal;font-size:25.37199402px;line-height:125%;font-family:sans-serif;text-align:center;letter-spacing:0px;word-spacing:0px;text-anchor:middle;fill:#000000;fill-opacity:1;stroke:none;stroke-width:1px;stroke-linecap:butt;stroke-linejoin:miter;stroke-opacity:1"
       xml:space="preserve"><tspan
         style="font-style:normal;font-variant:normal;font-weight:bold;font-stretch:normal;font-size:16.91466331px;font-family:'Prosto Sans';-inkscape-font-specification:'Prosto Sans Bold'"
         y="279.82715"
         x="169.43477"
         id="tspan3946"
         sodipodi:role="line">WITHOUT</tspan><tspan
         style="font-style:normal;font-variant:normal;font-weight:bold;font-stretch:normal;font-size:16.91466331px;font-family:'Prosto Sans';-inkscape-font-specification:'Prosto Sans Bold'"
         id="tspan3948"
         y="300.97049"
         x="169.43477"
         sodipodi:role="line">CURVED EDGES</tspan></text>
</g><g
     id="g4117"
     transform="matrix(1.1498556,0,0,1.1498556,-60.265983,-110.10864)"><g
       id="g4007"><g
         id="g3932"
         transform="matrix(0.56382211,0,0,0.56382211,320.01044,298.57019)"><rect
           y="81.900024"
           x="94.85717"
           height="571.42859"
           width="280"
           id="rect3934"
           style="opacity:1;fill:#4d4d4d;fill-opacity:1;stroke:none;stroke-width:10;stroke-linecap:round;stroke-linejoin:round;stroke-miterlimit:4;stroke-dasharray:none;stroke-opacity:1" /><text
           sodipodi:linespacing="125%"
           id="text3936"
           y="329.04288"
           x="236.086"
           style="font-style:normal;font-weight:normal;font-size:45px;line-height:125%;font-family:sans-serif;text-align:center;letter-spacing:0px;word-spacing:0px;text-anchor:middle;fill:#000000;fill-opacity:1;stroke:none;stroke-width:1px;stroke-linecap:butt;stroke-linejoin:miter;stroke-opacity:1"
           xml:space="preserve"><tspan
             style="font-style:normal;font-variant:normal;font-weight:bold;font-stretch:normal;font-size:30px;font-family:'Prosto Sans';-inkscape-font-specification:'Prosto Sans Bold';fill:#ffffff"
             id="tspan3938"
             y="329.04288"
             x="236.086"
             sodipodi:role="line">PLACE YOUR</tspan><tspan
             style="font-style:normal;font-variant:normal;font-weight:bold;font-stretch:normal;font-size:30px;font-family:'Prosto Sans';-inkscape-font-specification:'Prosto Sans Bold';fill:#ffffff"
             id="tspan3940"
             y="366.54288"
             x="236.086"
             sodipodi:role="line">IMAGE</tspan><tspan
             style="font-style:normal;font-variant:normal;font-weight:bold;font-stretch:normal;font-size:30px;font-family:'Prosto Sans';-inkscape-font-specification:'Prosto Sans Bold';fill:#ffffff"
             id="tspan3942"
             y="404.04288"
             x="236.086"
             sodipodi:role="line">HERE</tspan></text>
</g><g
         id="g4127"
         transform="matrix(0.56382211,0,0,0.56382211,118.82533,296.28055)"><g
           transform="translate(358.57142,0)"
           id="g4037"><g
             id="g4039"><g
               id="g4041"
               inkscape:version="0.91 r13725"
               sodipodi:docname="s8 mockup.svg"
               style="stroke:#1a1a1a"><sodipodi:namedview
                 bordercolor="#666666"
                 borderopacity="1.0"
                 id="namedview4043"
                 inkscape:current-layer="layer2"
                 inkscape:cx="-130.78752"
                 inkscape:cy="413.23718"
                 inkscape:document-units="px"
                 inkscape:pageopacity="0.0"
                 inkscape:pageshadow="2"
                 inkscape:window-height="657"
                 inkscape:window-maximized="1"
                 inkscape:window-width="1280"
                 inkscape:window-x="-8"
                 inkscape:window-y="-8"
                 inkscape:zoom="0.7"
                 pagecolor="#ffffff"
                 showborder="false"
                 showgrid="false" /><g
                 id="g4045"
                 style="stroke:#1a1a1a"><path
                   style="fill:none;stroke:#1a1a1a"
                   inkscape:connector-curvature="0"
                   class="st2"
                   d="m 378.5,186.7 c 0,-8 0,-15.6 0,-22.8 0,2.6 0,5.2 0,7.9 0,4.7 0,9.7 0,14.9 z"
                   id="path4047" /><path
                   style="fill:none;stroke:#1a1a1a"
                   inkscape:connector-curvature="0"
                   class="st2"
                   d="m 378.5,220 c 0,-4.8 0,-9.6 0,-14.2 0,4.3 0,8.7 0,13.2 0,0.3 0,0.7 0,1 z"
                   id="path4049" /><path
                   style="fill:none;stroke:#1a1a1a"
                   inkscape:connector-curvature="0"
                   class="st2"
                   d="m 378.4,309.5 c 0,-5.5 0,-11 0,-16.5 0,4.6 0,9.3 0,14 l 0,2.5 z"
                   id="path4051" /><path
                   style="fill:none;stroke:#1a1a1a"
                   inkscape:connector-curvature="0"
                   class="st2"
                   d="m 378.3,318.6 c 0,-1.7 0,-3.4 0,-5.1 0,0.6 0,1.3 0,1.9 l 0,3.2 z"
                   id="path4053" /><path
                   style="fill:none;stroke:#1a1a1a"
                   inkscape:connector-curvature="0"
                   class="st2"
                   d="m 378.4,275.7 c 0,-5.3 0,-10.6 0,-15.7 0,4.2 0,8.5 0,12.8 0,0.9 0,1.9 0,2.9 z"
                   id="path4055" /><path
                   style="fill:none;stroke:#1a1a1a"
                   inkscape:connector-curvature="0"
                   class="st2"
                   d="m 378.5,157.9 c 0,-6.6 0,-12.9 0,-18.8 0,4.7 0,9.6 0,14.7 0,1.3 0,2.7 0,4.1 z"
                   id="path4057" /><path
                   style="fill:none;stroke:#1a1a1a"
                   inkscape:connector-curvature="0"
                   class="st2"
                   d="m 378.3,324 0,2.9 c 0,3.3 0,6.7 0,10.1 0,-4.7 0,-9.4 0,-14.1 0,0.4 0,0.8 0,1.1 z"
                   id="path4059" /><path
                   style="fill:none;stroke:#1a1a1a"
                   inkscape:connector-curvature="0"
                   class="st2"
                   d="m 378.6,116.8 c 0,3.1 0,6.5 0,10 0,-3.6 0,-6.9 0,-10 z"
                   id="path4061" /><path
                   style="fill:#1a1a1a;stroke:#1a1a1a;stroke-width:10"
                   inkscape:connector-curvature="0"
                   class="st3"
                   d="m 128.9,82 213.7,0 c 0,0 34.9,3 36,34.6 0,-13.9 0,-23.8 0,-28.6 0,-36.6 -22.6,-39.8 -36,-40.1 -53,-1.1 -213.6,0 -213.7,0 -38.9,0 -37.7,38.9 -37.7,38.9 l 0,30 C 91.1,113.3 92.2,82 128.9,82 Z"
                   id="path4063" /><path
                   style="fill:#1a1a1a;stroke:#1a1a1a;stroke-width:10"
                   inkscape:connector-curvature="0"
                   class="st3"
                   d="m 335.2,654 -201.8,0 c 0,0 -42.3,-1 -42.3,-32 l 0,24.7 c 0,34.3 42.3,35.4 42.3,35.4 l 201.7,0 c 22.5,0 43,-9.2 43,-49.6 l 0,-23.3 c 0,36.5 -20.5,44.8 -42.9,44.8 z"
                   id="path4065" /><path
                   style="fill:none;stroke:#1a1a1a;stroke-width:10"
                   inkscape:connector-curvature="0"
                   class="st4"
                   d="m 378.2,495.3 c 0,27.3 0,53.6 0,78 0,-24.8 0,-51.1 0,-78 z"
                   id="path4067" /><path
                   style="fill:none;stroke:#1a1a1a;stroke-width:10"
                   inkscape:connector-curvature="0"
                   class="st4"
                   d="m 378.3,324 c 0,-0.4 0,-0.7 0,-1.1 0,-1.4 0,-2.9 0,-4.3 l 0,-3.2 c 0,-0.6 0,-1.3 0,-1.9 0,-1.4 0,-2.7 0,-4.1 l 0,-2.4 c 0,-4.7 0,-9.3 0,-14 0,-5.8 0,-11.6 0,-17.3 0,-1 0,-2 0,-3 0,-4.3 0,-8.6 0,-12.8 0,-13.8 0,-27.2 0,-39.9 0,-0.3 0,-0.7 0,-1 0,-4.5 0,-8.9 0,-13.2 0,-6.6 0,-13 0,-19.1 0,-5.1 0,-10.1 0,-14.9 0,-2.7 0,-5.3 0,-7.9 0,-2 0,-4 0,-6 0,-1.4 0,-2.7 0,-4.1 0,-5.2 0,-10.1 0,-14.7 0,-4.3 0,-8.4 0,-12.3 0,-3.5 0,-6.9 0,-10 0,-0.1 0,-0.1 0,-0.2 C 377.2,85 342.3,82 342.3,82 l -213.4,0 c -36.7,0 -37.7,31.3 -37.7,34.7 0,0.2 0,0.3 0,0.3 l 0,505 c 0,30.9 42.3,32 42.3,32 l 201.7,0 c 22.5,0 43,-8.3 43,-44.7 0,-11.4 0,-23.5 0,-36 0,-24.4 0,-50.7 0,-78 0,-9 0,-18 0,-27.2 0,-2.7 0,-5.4 0,-8.1 0,-5.3 0,-10.7 0,-16 0,-32.3 0.1,-64.9 0.1,-96.5 0,-3.5 0,-7 0,-10.5 0,-3.4 0,-6.7 0,-10.1 l 0,-2.9 z"
                   id="path4069" /><path
                   style="fill:none;stroke:#1a1a1a;stroke-width:10"
                   inkscape:connector-curvature="0"
                   class="st4"
                   d="m 378.3,322 0,-0.3 c 0,0.1 0,0.3 0,0.4 0,-0.1 0,-0.1 0,-0.1 z"
                   id="path4071" /><path
                   style="fill:none;stroke:#1a1a1a;stroke-width:10"
                   inkscape:connector-curvature="0"
                   class="st4"
                   d="m 378.3,337 c 0,-5 0,-10 0,-15 0,0.3 0,0.6 0,0.9 0,4.7 0,9.4 0,14.1 z"
                   id="path4073" /><path
                   style="fill:none;stroke:#1a1a1a;stroke-width:10"
                   inkscape:connector-curvature="0"
                   class="st4"
                   d="m 378.6,116.8 c 0,3.1 0,6.5 0,10 0,3.9 0,8 0,12.3 0,5.9 0,12.2 0,18.8 0,2 0,4 0,6 0,7.2 0,14.9 0,22.8 0,6.2 0,12.6 0,19.1 0,4.6 0,9.4 0,14.2 0,2.9 0,5.8 0,8.7 0,3 0,6.1 0,9.2 0,3.1 0,6.2 0,9.4 0,4.2 0,8.4 0,12.6 0,5.2 0,10.4 0,15.7 0,2.8 0,5.5 0,8.3 0,3 0,6 0,9 0,5.4 0,10.9 0,16.5 l 0,2.5 c 0,0.5 0,1 0,1.6 0,1.7 0,3.4 0,5.1 l 0,3 c 0.1,-101.3 0.3,-186.7 0.3,-203.5 -0.3,-0.4 -0.3,-0.9 -0.3,-1.3 z"
                   id="path4075" /><path
                   style="fill:none;stroke:#1a1a1a;stroke-width:10"
                   inkscape:connector-curvature="0"
                   class="st4"
                   d="m 378.4,284 c 0,-2.8 0,-5.5 0,-8.3 0,5.7 0,11.5 0,17.3 0,-3 0,-6 0,-9 z"
                   id="path4077" /><path
                   style="fill:none;stroke:#1a1a1a;stroke-width:10"
                   inkscape:connector-curvature="0"
                   class="st4"
                   d="m 378.4,312 0,-2.5 c 0,1.4 0,2.7 0,4.1 0,-0.5 0,-1.1 0,-1.6 z"
                   id="path4079" /><path
                   style="fill:none;stroke:#1a1a1a;stroke-width:10"
                   inkscape:connector-curvature="0"
                   class="st4"
                   d="m 378.3,322.9 c 0,-0.3 0,-0.6 0,-0.9 0,-0.1 0,-0.3 0,-0.4 l 0,-3 c 0,1.5 0,2.9 0,4.3 z"
                   id="path4081" /><path
                   style="fill:none;stroke:#1a1a1a;stroke-width:10"
                   inkscape:connector-curvature="0"
                   class="st4"
                   d="m 378.6,126.8 c 0,3.9 0,8 0,12.3 0,-4.4 0,-8.5 0,-12.3 z"
                   id="path4083" /><path
                   style="fill:none;stroke:#1a1a1a;stroke-width:10"
                   inkscape:connector-curvature="0"
                   class="st4"
                   d="m 378.4,247.3 c 0,-3.2 0,-6.3 0,-9.4 0,-3.1 0,-6.2 0,-9.2 0,-2.9 0,-5.8 0,-8.7 0,12.8 0,26.1 0,39.9 0,-4.2 0,-8.4 0,-12.6 z"
                   id="path4085" /><path
                   style="fill:none;stroke:#1a1a1a;stroke-width:10"
                   inkscape:connector-curvature="0"
                   class="st4"
                   d="m 378.5,186.7 c 0,6.2 0,12.6 0,19.1 0,-6.6 0,-13 0,-19.1 z"
                   id="path4087" /><path
                   style="fill:none;stroke:#1a1a1a;stroke-width:10"
                   inkscape:connector-curvature="0"
                   class="st4"
                   d="m 378.5,157.9 c 0,2 0,3.9 0,6 0,-2.1 0,-4.1 0,-6 z"
                   id="path4089" /></g></g><g
               id="g4091"
               style="fill:#1a1a1a"><path
                 style="fill:#1a1a1a"
                 inkscape:connector-curvature="0"
                 class="st8"
                 d="m 383.9,288 0,0 c -1.3,0 -2.4,-1.1 -2.4,-2.4 l 0,-39 c 0,-1.3 1.1,-2.4 2.4,-2.4 l 0,0 c 1.3,0 2.4,1.1 2.4,2.4 l 0,39 c 0,1.3 -1.1,2.4 -2.4,2.4 z"
                 id="path4093" /><path
                 style="fill:#1a1a1a"
                 inkscape:connector-curvature="0"
                 class="st8"
                 d="m 86.7,322.7 0,0 c 1.3,0 2.3,-1 2.3,-2.3 l 0,-37.7 c 0,-1.3 -1,-2.3 -2.3,-2.3 l 0,0 c -1.3,0 -2.3,1 -2.3,2.3 l 0,37.7 c -0.1,1.2 1,2.3 2.3,2.3 z"
                 id="path4095" /><path
                 style="fill:#1a1a1a"
                 inkscape:connector-curvature="0"
                 class="st8"
                 d="m 86.7,155.7 0,0 c 1.3,0 2.3,1 2.3,2.3 l 0,83.7 c 0,1.3 -1,2.3 -2.3,2.3 l 0,0 c -1.3,0 -2.3,-1.1 -2.3,-2.3 l 0,-83.7 c -0.1,-1.3 1,-2.3 2.3,-2.3 z"
                 id="path4097" /></g></g><g
             id="g4099"><circle
               id="circle4101"
               r="3.5"
               cy="68.5"
               cx="135.5"
               class="st5"
               style="fill:#3a3a3a" /><circle
               id="circle4103"
               r="4.3000002"
               cy="69.599998"
               cx="174.60001"
               class="st5"
               style="fill:#3a3a3a" /><circle
               id="circle4105"
               r="2.9000001"
               cy="69.599998"
               cx="174.60001"
               class="st6"
               style="fill:#1d2830" /><circle
               id="circle4107"
               r="4.3000002"
               cy="69.599998"
               cx="189.5"
               class="st6"
               style="fill:#1d2830" /><circle
               id="circle4109"
               r="6.5999999"
               cy="68.099998"
               cx="153.10001"
               class="st6"
               style="fill:#1d2830" /><circle
               id="circle4111"
               r="7.3000002"
               cy="68.800003"
               cx="291.29999"
               class="st5"
               style="fill:#3a3a3a" /><circle
               id="circle4113"
               r="7.3000002"
               cy="68.800003"
               cx="291.29999"
               class="st5"
               style="fill:#3a3a3a" /><circle
               id="circle4115"
               r="4.3000002"
               cy="68.800003"
               cx="291.29999"
               class="st6"
               style="fill:#1d2830" /><circle
               id="circle4117"
               r="4.3000002"
               cy="68.800003"
               cx="291.29999"
               class="st6"
               style="fill:#1d2830" /><circle
               id="circle4119"
               r="4.9000001"
               cy="69.5"
               cx="315.5"
               class="st6"
               style="fill:#1d2830" /><path
               id="path4121"
               d="m 252.9,72.5 -35.4,0 c -1.6,0 -2.9,-1.3 -2.9,-2.9 l 0,0 c 0,-1.6 1.3,-2.9 2.9,-2.9 l 35.4,0 c 1.6,0 2.9,1.3 2.9,2.9 l 0,0 c 0,1.6 -1.3,2.9 -2.9,2.9 z"
               class="st7"
               inkscape:connector-curvature="0"
               style="fill:#515151" /></g></g><g
           transform="translate(1.8870979,0)"
           id="g4123"><path
             inkscape:connector-curvature="0"
             id="path4526"
             d="m 722.88831,55.971689 0,617.856311 c 6.1077,-5.61853 10,-14.18734 10,-23.82461 l 0,-570.207091 c 0,-9.63727 -3.8923,-18.2061 -10,-23.82461 z"
             style="opacity:1;fill:url(#linearGradient4530);fill-opacity:1;stroke:none;stroke-width:10;stroke-linecap:round;stroke-linejoin:round;stroke-miterlimit:4;stroke-dasharray:none;stroke-opacity:1" /><path
             style="opacity:1;fill:url(#linearGradient4532);fill-opacity:1;stroke:none;stroke-width:10;stroke-linecap:round;stroke-linejoin:round;stroke-miterlimit:4;stroke-dasharray:none;stroke-opacity:1"
             d="m 461.17401,55.971689 0,617.856311 c -6.1077,-5.61853 -10,-14.18734 -10,-23.82461 l 0,-570.207091 c 0,-9.63727 3.8923,-18.2061 10,-23.82461 z"
             id="path4528"
             inkscape:connector-curvature="0" /></g></g></g><text
       xml:space="preserve"
       style="font-style:normal;font-weight:normal;font-size:25.37199402px;line-height:125%;font-family:sans-serif;text-align:center;letter-spacing:0px;word-spacing:0px;text-anchor:middle;fill:#000000;fill-opacity:1;stroke:none;stroke-width:1px;stroke-linecap:butt;stroke-linejoin:miter;stroke-opacity:1"
       x="453.61993"
       y="279.82715"
       id="text3950"
       sodipodi:linespacing="125%"><tspan
         sodipodi:role="line"
         id="tspan3952"
         x="453.61993"
         y="279.82715"
         style="font-style:normal;font-variant:normal;font-weight:bold;font-stretch:normal;font-size:16.91466331px;font-family:'Prosto Sans';-inkscape-font-specification:'Prosto Sans Bold'">WITH</tspan><tspan
         sodipodi:role="line"
         x="453.61993"
         y="300.97049"
         id="tspan3954"
         style="font-style:normal;font-variant:normal;font-weight:bold;font-stretch:normal;font-size:16.91466331px;font-family:'Prosto Sans';-inkscape-font-specification:'Prosto Sans Bold'">CURVED EDGES</tspan></text>
</g><text
     sodipodi:linespacing="125%"
     id="text3944-8"
     y="71.534203"
     x="300.64462"
     style="font-style:normal;font-weight:normal;font-size:25.37199402px;line-height:125%;font-family:sans-serif;text-align:center;letter-spacing:0px;word-spacing:0px;text-anchor:middle;fill:#000000;fill-opacity:1;stroke:none;stroke-width:1px;stroke-linecap:butt;stroke-linejoin:miter;stroke-opacity:1"
     xml:space="preserve"><tspan
       style="font-style:normal;font-variant:normal;font-weight:bold;font-stretch:normal;font-size:16.91466331px;font-family:'Prosto Sans';-inkscape-font-specification:'Prosto Sans Bold'"
       y="71.534203"
       x="300.64462"
       id="tspan3946-9"
       sodipodi:role="line">sAMSUNG GALAXY S8</tspan><tspan
       style="font-style:normal;font-variant:normal;font-weight:bold;font-stretch:normal;font-size:30px;font-family:'Prosto Sans';-inkscape-font-specification:'Prosto Sans Bold'"
       id="tspan3948-9"
       y="106.07307"
       x="300.64462"
       sodipodi:role="line">mOCKUP</tspan></text>
<text
     sodipodi:linespacing="125%"
     id="text3944-8-8"
     y="776.12463"
     x="585.03613"
     style="font-style:normal;font-weight:normal;font-size:30.86687469px;line-height:125%;font-family:sans-serif;text-align:center;letter-spacing:0px;word-spacing:0px;text-anchor:middle;fill:#000000;fill-opacity:1;stroke:none;stroke-width:1px;stroke-linecap:butt;stroke-linejoin:miter;stroke-opacity:1"
     xml:space="preserve"><tspan
       style="font-style:normal;font-variant:normal;font-weight:bold;font-stretch:normal;font-size:20.5779171px;font-family:'Prosto Sans';-inkscape-font-specification:'Prosto Sans Bold';text-align:end;text-anchor:end"
       id="tspan3948-9-8"
       y="776.12463"
       x="585.03613"
       sodipodi:role="line">BY</tspan><tspan
       style="font-style:normal;font-variant:normal;font-weight:bold;font-stretch:normal;font-size:20.5779171px;font-family:'Prosto Sans';-inkscape-font-specification:'Prosto Sans Bold';text-align:end;text-anchor:end"
       y="797.26794"
       x="585.03613"
       sodipodi:role="line"
       id="tspan4230">vARUN a p</tspan></text>
<text
     xml:space="preserve"
     style="font-style:normal;font-weight:normal;font-size:25.37199402px;line-height:125%;font-family:sans-serif;text-align:center;letter-spacing:0px;word-spacing:0px;text-anchor:middle;fill:#000000;fill-opacity:1;stroke:none;stroke-width:1px;stroke-linecap:butt;stroke-linejoin:miter;stroke-opacity:1"
     x="431.42258"
     y="811.13409"
     id="text4233"
     sodipodi:linespacing="125%"><tspan
       id="tspan4237"
       sodipodi:role="line"
       x="431.42258"
       y="811.13409"
       style="font-style:normal;font-variant:normal;font-weight:bold;font-stretch:normal;font-size:16.91466331px;font-family:'Prosto Sans';-inkscape-font-specification:'Prosto Sans Bold';text-align:start;text-anchor:start" /></text>
<text
     xml:space="preserve"
     style="font-style:normal;font-weight:normal;font-size:25.37199402px;line-height:125%;font-family:sans-serif;text-align:center;letter-spacing:0px;word-spacing:0px;text-anchor:middle;fill:#000000;fill-opacity:1;stroke:none;stroke-width:1px;stroke-linecap:butt;stroke-linejoin:miter;stroke-opacity:1"
     x="362.85114"
     y="822.91986"
     id="text4251"
     sodipodi:linespacing="125%"><tspan
       id="tspan4255"
       sodipodi:role="line"
       x="362.85114"
       y="822.91986"
       style="font-style:normal;font-variant:normal;font-weight:300;font-stretch:normal;font-size:15px;font-family:Roboto;-inkscape-font-specification:'Roboto Light';text-align:start;text-anchor:start">https://www.behance.net/apvarun</tspan></text>
</svg>