<?xml version="1.0" encoding="utf-8"?>
<!-- Generator: Adobe Illustrator 18.0.0, SVG Export Plug-In . SVG Version: 6.00 Build 0)  -->
<!DOCTYPE svg PUBLIC "-//W3C//DTD SVG 1.1//EN" "http://www.w3.org/Graphics/SVG/1.1/DTD/svg11.dtd">
<svg version="1.1" xmlns="http://www.w3.org/2000/svg" xmlns:xlink="http://www.w3.org/1999/xlink" x="0px" y="0px"
	 viewBox="0 0 696 108" enable-background="new 0 0 696 108" xml:space="preserve">
<g id="Text">
	<g>
		<path fill="#010101" d="M157.6,76.5h-7V57.2h-19.7v19.3h-7V33.7h7v17.5h19.7V33.7h7V76.5z"/>
		<path fill="#010101" d="M188.4,76.5L187,72h-0.2c-1.6,2-3.1,3.3-4.7,4s-3.6,1.1-6.1,1.1c-3.2,0-5.7-0.9-7.5-2.6s-2.7-4.2-2.7-7.3
			c0-3.3,1.2-5.9,3.7-7.6c2.5-1.7,6.3-2.6,11.3-2.8l5.6-0.2V55c0-2.1-0.5-3.6-1.5-4.6s-2.5-1.5-4.5-1.5c-1.7,0-3.3,0.2-4.8,0.7
			c-1.5,0.5-3,1.1-4.4,1.7l-2.2-4.9c1.8-0.9,3.7-1.6,5.8-2.1c2.1-0.5,4.1-0.7,5.9-0.7c4.1,0,7.2,0.9,9.3,2.7
			c2.1,1.8,3.1,4.6,3.1,8.5v21.8H188.4z M178.2,71.9c2.5,0,4.5-0.7,6-2.1c1.5-1.4,2.3-3.4,2.3-5.9v-2.8l-4.2,0.2
			c-3.2,0.1-5.6,0.7-7.1,1.6c-1.5,1-2.2,2.4-2.2,4.4c0,1.4,0.4,2.6,1.3,3.4C175.2,71.5,176.5,71.9,178.2,71.9z"/>
		<path fill="#010101" d="M219.4,43.6c1.4,0,2.5,0.1,3.4,0.3l-0.7,6.4c-1-0.2-2-0.4-3-0.4c-2.8,0-5,0.9-6.7,2.7
			c-1.7,1.8-2.6,4.1-2.6,7v16.9H203V44.1h5.4l0.9,5.7h0.4c1.1-1.9,2.5-3.5,4.2-4.6C215.5,44.1,217.4,43.6,219.4,43.6z"/>
		<path fill="#010101" d="M245.3,43.6c1.4,0,2.5,0.1,3.4,0.3l-0.7,6.4c-1-0.2-2-0.4-3-0.4c-2.8,0-5,0.9-6.7,2.7
			c-1.7,1.8-2.6,4.1-2.6,7v16.9h-6.9V44.1h5.4l0.9,5.7h0.4c1.1-1.9,2.5-3.5,4.2-4.6C241.4,44.1,243.3,43.6,245.3,43.6z"/>
		<path fill="#010101" d="M254.3,35.6c0-1.2,0.3-2.2,1-2.8c0.7-0.7,1.6-1,2.9-1c1.2,0,2.2,0.3,2.8,1c0.7,0.7,1,1.6,1,2.8
			c0,1.2-0.3,2.1-1,2.8s-1.6,1-2.8,1c-1.3,0-2.2-0.3-2.9-1S254.3,36.7,254.3,35.6z M261.6,76.5h-6.9V44.1h6.9V76.5z"/>
		<path fill="#010101" d="M278.6,60l-10.9-15.8h7.9l7.4,11.3l7.4-11.3h7.8L287.3,60l11.5,16.6H291l-8-12.1l-8,12.1h-7.8L278.6,60z"
			/>
		<path fill="#010101" d="M338.4,76.5l-16-39.6h-0.2c0.2,2.4,0.2,4.9,0.2,7.4v32.1h-2.9V33.7h4.6l15.2,37.7h0.2l15.2-37.7h4.5v42.8
			h-3V44.1c0-2.3,0.1-4.6,0.4-7h-0.2l-16,39.5H338.4z"/>
		<path fill="#010101" d="M390,76.5l-0.7-5H389c-1.6,2.1-3.2,3.5-4.9,4.4s-3.7,1.3-6,1.3c-3.1,0-5.6-0.8-7.3-2.4s-2.6-3.8-2.6-6.7
			c0-3.1,1.3-5.5,3.9-7.2s6.3-2.6,11.2-2.7l6.1-0.2v-2.1c0-3-0.6-5.3-1.8-6.9c-1.2-1.5-3.2-2.3-5.9-2.3c-2.9,0-6,0.8-9.2,2.5
			l-1.1-2.5c3.5-1.6,7-2.5,10.4-2.5c3.5,0,6.1,0.9,7.8,2.7s2.6,4.6,2.6,8.5v21.2H390z M378.2,74.5c3.4,0,6.1-1,8-2.9
			s2.9-4.6,2.9-8.1v-3.1l-5.6,0.2c-4.5,0.2-7.7,0.9-9.6,2.1s-2.9,3-2.9,5.5c0,2,0.6,3.5,1.8,4.6S376,74.5,378.2,74.5z"/>
		<path fill="#010101" d="M415,44.1c1.3,0,2.8,0.1,4.3,0.4l-0.6,2.8c-1.3-0.3-2.7-0.5-4.1-0.5c-2.7,0-4.9,1.2-6.7,3.5
			c-1.7,2.3-2.6,5.2-2.6,8.7v17.6h-2.9V44.7h2.5l0.3,5.7h0.2c1.3-2.3,2.7-4,4.2-4.9C411,44.6,412.8,44.1,415,44.1z"/>
		<path fill="#010101" d="M428.6,62.6l16.3-17.9h3.5l-12.5,13.6l13.6,18.3H446l-12.1-16.1l-5.2,4.7v11.3h-2.9V31h2.9v22.9l-0.2,8.8
			H428.6z"/>
		<path fill="#010101" d="M466.5,44.1c2.3,0,4.3,0.4,6,1.3c1.7,0.8,3.2,2.3,4.5,4.3h0.2c-0.1-2.5-0.2-4.9-0.2-7.2V31h2.9v45.6h-1.9
			l-0.7-4.9h-0.2c-2.4,3.6-5.9,5.4-10.4,5.4c-4.4,0-7.8-1.4-10.1-4.1s-3.5-6.7-3.5-12c0-5.5,1.2-9.7,3.5-12.6
			C458.7,45.5,462.1,44.1,466.5,44.1z M466.5,46.7c-3.5,0-6.1,1.2-7.8,3.7c-1.7,2.4-2.6,6-2.6,10.6c0,9,3.5,13.5,10.5,13.5
			c3.6,0,6.2-1,7.9-3.1s2.5-5.5,2.5-10.3v-0.5c0-4.9-0.8-8.5-2.5-10.6C472.8,47.8,470.1,46.7,466.5,46.7z"/>
		<path fill="#010101" d="M516.8,60.6c0,5.2-1.3,9.3-3.8,12.2c-2.5,2.9-6,4.4-10.4,4.4c-2.8,0-5.3-0.7-7.4-2s-3.8-3.3-4.9-5.8
			s-1.7-5.4-1.7-8.7c0-5.2,1.3-9.2,3.8-12.1s6-4.4,10.4-4.4c4.4,0,7.8,1.5,10.3,4.4C515.6,51.4,516.8,55.5,516.8,60.6z M491.7,60.6
			c0,4.4,1,7.8,2.9,10.2s4.6,3.7,8.2,3.7s6.2-1.2,8.2-3.7c1.9-2.5,2.9-5.9,2.9-10.2c0-4.4-1-7.8-2.9-10.2c-1.9-2.4-4.7-3.6-8.2-3.6
			s-6.2,1.2-8.1,3.6C492.7,52.7,491.7,56.2,491.7,60.6z"/>
		<path fill="#010101" d="M551.1,76.5l-7-21.3c-0.4-1.4-1-3.6-1.7-6.4h-0.2l-0.6,2.2l-1.3,4.2l-7.1,21.2h-2.9l-9.1-31.8h3.1
			l5.1,18.5c1.2,4.6,2,7.9,2.3,10.1h0.2c1.2-4.6,2-7.6,2.5-9.1l6.6-19.4h2.6l6.2,19.4c1.4,4.6,2.3,7.6,2.6,9.1h0.2
			c0.2-1.3,0.9-4.7,2.3-10.2l4.9-18.3h2.9l-8.6,31.8H551.1z"/>
		<path fill="#010101" d="M591.3,76.5V55.9c0-3.2-0.7-5.5-2-7c-1.3-1.5-3.4-2.2-6.3-2.2c-3.8,0-6.6,1-8.4,2.9
			c-1.8,1.9-2.7,5-2.7,9.4v17.6h-2.9V44.7h2.5l0.6,4.4h0.2c2.1-3.3,5.8-5,11-5c7.2,0,10.8,3.9,10.8,11.6v20.8H591.3z"/>
		<path fill="#010101" d="M608.2,76.5h-3V33.7h23.5v2.8h-20.5v18.2h19.3v2.8h-19.3V76.5z"/>
		<path fill="#010101" d="M634.2,35.8c0-1.9,0.6-2.8,1.8-2.8c0.6,0,1.1,0.2,1.4,0.7c0.3,0.5,0.5,1.2,0.5,2.1c0,0.9-0.2,1.6-0.5,2.1
			c-0.3,0.5-0.8,0.8-1.4,0.8C634.8,38.7,634.2,37.7,634.2,35.8z M637.5,76.5h-2.9V44.7h2.9V76.5z"/>
		<path fill="#010101" d="M651,76.5h-2.9V31h2.9V76.5z"/>
		<path fill="#010101" d="M674.6,77.1c-4.6,0-8.2-1.4-10.8-4.3s-3.9-6.8-3.9-12c0-5.1,1.3-9.1,3.8-12.2c2.5-3.1,5.9-4.6,10.1-4.6
			c3.8,0,6.7,1.3,8.9,3.9c2.2,2.6,3.3,6.2,3.3,10.7V61h-22.9c0,4.4,1.1,7.7,3.1,10s4.9,3.5,8.6,3.5c1.8,0,3.4-0.1,4.8-0.4
			s3.1-0.8,5.2-1.6v2.6c-1.8,0.8-3.5,1.3-5,1.6C678.1,77,676.4,77.1,674.6,77.1z M673.7,46.7c-3.1,0-5.5,1-7.4,3s-2.9,4.9-3.3,8.7
			h19.7c0-3.7-0.8-6.6-2.4-8.7S676.5,46.7,673.7,46.7z"/>
	</g>
</g>
<g id="Logo">
	<g>
		<path fill="#DE2B26" d="M16.7,54.6c0-20.2,16.4-36.6,36.6-36.6c12.8,0,24,6.6,30.6,16.5l11.5-5C82.9,8.7,56.6-0.2,33.7,9.8
			C10.9,19.7-0.6,45,6.2,68.3l11.5-5C17,60.5,16.7,57.6,16.7,54.6z"/>
		<path fill="#DE2B26" d="M100.2,41l-11.5,5c0.7,2.8,1,5.7,1,8.7c0,20.2-16.4,36.6-36.6,36.6c-12.8,0-24-6.6-30.6-16.5l-11.5,5
			c12.4,20.9,38.7,29.7,61.5,19.8C95.6,89.6,107,64.3,100.2,41z"/>
	</g>
	<g>
		<path fill="#DE2B26" d="M32.4,77.1l-9.8-22.6l6.6-2.9l10.3,5.4l3-11.2l6.6-2.9L59,65.6l-6.6,2.9l-5.6-13l-3,11.2l-10.3-5.4l5.6,13
			L32.4,77.1z"/>
		<path fill="#DE2B26" d="M73.9,59.1l-14.7-6.6l6.6-2.9l-5.1-11.6l6.6-2.9l5.1,11.6l6.6-2.9L73.9,59.1z"/>
	</g>
</g>
</svg>
