<?xml version="1.0" encoding="utf-8"?>
<!-- Generator: Adobe Illustrator 21.0.2, SVG Export Plug-In . SVG Version: 6.00 Build 0)  -->
<svg version="1.1" id="logo" xmlns="http://www.w3.org/2000/svg" xmlns:xlink="http://www.w3.org/1999/xlink" x="0px" y="0px"
	 viewBox="0 0 279 97.9" enable-background="new 0 0 279 97.9" xml:space="preserve">
<g>
	<g>
		<path fill="#010101" d="M151.4,70.8h-5.8V52h-20.7v18.8h-5.8V28.2h5.8v19.3h20.7V28.2h5.8V70.8z"/>
		<path fill="#010101" d="M180.9,70.8c-0.2-1-0.3-1.8-0.5-2.5c-0.1-0.7-0.2-1.5-0.2-2.2c-1.1,1.5-2.5,2.8-4.2,3.8s-3.6,1.5-5.6,1.5
			c-3.3,0-5.8-0.8-7.5-2.5s-2.6-4-2.6-7c0-3,1.2-5.4,3.7-7.1c2.5-1.7,5.8-2.6,10-2.6h6.3v-3.1c0-1.9-0.6-3.3-1.7-4.4
			c-1.1-1.1-2.7-1.6-4.8-1.6c-1.9,0-3.4,0.5-4.5,1.4c-1.2,0.9-1.7,2.1-1.7,3.4H162l-0.1-0.2c-0.1-2.3,1-4.4,3.3-6.3
			c2.3-1.9,5.3-2.9,8.9-2.9c3.6,0,6.5,0.9,8.7,2.7c2.2,1.8,3.3,4.5,3.3,7.9v15.3c0,1.1,0.1,2.2,0.2,3.3s0.3,2.1,0.6,3.1H180.9z
			 M171.4,66.6c2.1,0,4-0.5,5.7-1.6c1.7-1.1,2.8-2.3,3.3-3.7v-5.1h-6.5c-2.3,0-4.2,0.6-5.6,1.8c-1.4,1.2-2.1,2.5-2.1,4.1
			c0,1.4,0.4,2.5,1.3,3.3C168.3,66.2,169.6,66.6,171.4,66.6z"/>
		<path fill="#010101" d="M210.1,44.2l-3-0.2c-1.5,0-2.8,0.4-3.9,1.1c-1,0.7-1.9,1.7-2.4,3v22.6h-5.8V39.1h5.2l0.6,4.6
			c0.9-1.6,2-2.9,3.3-3.8c1.3-0.9,2.8-1.4,4.6-1.4c0.4,0,0.8,0,1.2,0.1c0.4,0.1,0.7,0.1,1,0.2L210.1,44.2z"/>
		<path fill="#010101" d="M231.2,44.2l-3-0.2c-1.5,0-2.8,0.4-3.9,1.1c-1,0.7-1.9,1.7-2.4,3v22.6h-5.8V39.1h5.2l0.6,4.6
			c0.9-1.6,2-2.9,3.3-3.8c1.3-0.9,2.8-1.4,4.6-1.4c0.4,0,0.8,0,1.2,0.1c0.4,0.1,0.7,0.1,1,0.2L231.2,44.2z"/>
		<path fill="#010101" d="M243.6,31h-5.8v-5.9h5.8V31z M243.6,70.8h-5.8V39.1h5.8V70.8z"/>
		<path fill="#010101" d="M263.9,50.8l6.7-11.7h6.7L267,54.8l10.6,16H271l-7-12l-7,12h-6.7l10.6-16l-10.3-15.7h6.7L263.9,50.8z"/>
	</g>
	<g id="icon">
		<path fill="#DE2B26" d="M13.5,57.6C9.8,42.6,16,26.9,28.9,18.5l11.8,27.3l11.4-5L40.3,13.5C55.2,9.8,71,16,79.4,28.9l11.6-5
			C78.6,3,52.3-5.9,29.4,4.1S-4.9,39.3,1.9,62.6L13.5,57.6z"/>
		<path fill="#DE2B26" d="M84.4,40.3C88,55.3,81.8,71,69,79.4L57.1,52.2l-11.4,5l11.8,27.3C42.6,88,26.9,81.8,18.5,69L6.9,74
			c12.4,20.9,38.7,29.7,61.5,19.8s34.3-35.2,27.5-58.5L84.4,40.3z"/>
	</g>
</g>
</svg>
