<?xml version="1.0" encoding="utf-8"?>
<!-- Generator: Adobe Illustrator 21.0.2, SVG Export Plug-In . SVG Version: 6.00 Build 0)  -->
<svg version="1.1" xmlns="http://www.w3.org/2000/svg" xmlns:xlink="http://www.w3.org/1999/xlink" x="0px" y="0px"
	 viewBox="0 0 640 480" style="enable-background:new 0 0 640 480;" xml:space="preserve">
<style type="text/css">
	.st0{fill:#E16B5A;}
	.st1{fill:#992B1F;}
	.st2{fill:#F5F5F5;}
	.st3{fill:#FFFFFF;}
</style>
<g id="Layer_1">
	<g>
		<circle class="st0" cx="320" cy="240" r="229.6"/>
	</g>
	<path class="st1" d="M510.3,165.6c-16.2-76.1-125.6-118.5-190.5-55c-64.8-63.5-174.3-21.2-190.5,55
		c-21.8,102.6,89.2,220,190.5,262.3C421.2,385.6,532.2,268.2,510.3,165.6z"/>
	<g>
		<path class="st2" d="M334.1,234.2h-14.7c-2.8,0-5.3,1.6-6.5,4.2l-4.1,8.8l-11.5-26.5c-1.3-3-4.4-4.7-7.6-4.3
			c-3.2,0.4-5.7,2.9-6.1,6.1l-8.3,60l-17-92.3c-0.6-3.1-3.2-5.5-6.4-5.8c-3.2-0.3-6.2,1.5-7.4,4.5L224,240.6l-5.3-20.8
			c-0.7-2.8-3-4.9-5.9-5.3c-2.8-0.4-5.7,0.9-7.2,3.3l-12.3,19.9h-78.5c-4,0-7.2,3.2-7.2,7.2s3.2,7.2,7.2,7.2h82.5
			c2.5,0,4.8-1.3,6.1-3.4l5.5-8.9l6.6,25.7c0.8,3,3.4,5.2,6.5,5.4c3.1,0.2,6-1.6,7.1-4.5l19.5-49.1l20.6,111.5
			c0.6,3.4,3.6,5.8,7.1,5.8c0.1,0,0.1,0,0.2,0c3.5,0,6.5-2.4,6.9-5.9l10.9-78.5l7.7,18.2c1.1,2.6,3.7,5.2,6.5,5.2c0,0,0,0,0.1,0
			c2.8,0,5.3-2.5,6.5-5l8.8-20.1h10.1V234.2z"/>
		<path class="st2" d="M505.9,234.2h-34.1v14.4h34.1c4,0,7.2-3.2,7.2-7.2S509.9,234.2,505.9,234.2z"/>
	</g>
</g>
<g id="Layer_2">
	<path class="st3" d="M321.6,151.2H362l36.6,93.2l38.8-93.2h39.3c0,0-71,156.1-74.3,163.8c-3.3,7.7-14.2,19.7-27.3,19.7
		c-13.1,0-32.8,0-32.8,0v-32.8c0,0,4.4,2.2,18.6,3.3c16.4-3.3,23.4-18.7,23-26.2C379.4,269.7,321.6,151.2,321.6,151.2z"/>
</g>
</svg>
