<?xml version="1.0" encoding="utf-8"?>
<!-- Generator: Adobe Illustrator 21.0.2, SVG Export Plug-In . SVG Version: 6.00 Build 0)  -->
<svg version="1.1" id="Layer_1" xmlns="http://www.w3.org/2000/svg" xmlns:xlink="http://www.w3.org/1999/xlink" x="0px" y="0px"
	 viewBox="0 0 640 480" style="enable-background:new 0 0 640 480;" xml:space="preserve">
<style type="text/css">
	.st0{fill:#F5814B;}
	.st1{fill:#D65350;}
	.st2{fill:#F7F7F5;}
</style>
<g>
	<path class="st0" d="M319.7,466.9c0,0,93.9-111.6,143.7-226.6l0,0c10.1-20.3,15.2-44,15.2-67.6c0-87.9-71-159-159-159V466.9z"/>
	<path class="st1" d="M319.7,12.8c-87.9,0-159,71-159,159c0,24.5,5.9,47.3,15.2,67.6l0,0C225.8,354.4,319.7,466,319.7,466V12.8z"/>
	<path class="st1" d="M319.7,52.6c66,0,119.2,53.3,119.2,119.2S385.7,291,319.7,291V52.6z"/>
	<path class="st0" d="M319.7,291c-66,0-119.2-53.3-119.2-119.2S253.7,52.6,319.7,52.6V291z"/>
	<circle class="st2" cx="319.7" cy="171.8" r="72.7"/>
</g>
</svg>
