<svg xmlns="http://www.w3.org/2000/svg" viewBox="0 0 1920 673" style="enable-background:new 0 0 1920 673" xml:space="preserve"><path style="fill:#244d6a" d="M0 0h1920v673H0z"/><path d="M460.48 378.8v-45.15h-35.94v45.15h-19.29V277.84h19.29v40.47h35.94v-40.47h19.43V378.8h-19.43zm100.88-13.81c.92 1.41 2.41 2.51 4.46 3.29l-3.95 12.42c-4.38-.39-7.96-1.46-10.74-3.21-2.78-1.75-4.89-4.43-6.36-8.04-2.63 3.9-5.92 6.79-9.86 8.69-3.94 1.9-8.35 2.85-13.22 2.85-7.7 0-13.78-2.19-18.26-6.57-4.48-4.38-6.72-10.13-6.72-17.24 0-8.38 3.04-14.78 9.13-19.21 6.09-4.43 14.78-6.65 26.08-6.65h9.64v-4.38c0-4.97-1.15-8.45-3.43-10.45-2.29-1.99-5.97-3-11.03-3-5.65 0-12.47 1.36-20.45 4.09l-4.38-12.71c9.64-3.7 18.99-5.55 28.05-5.55 19.77 0 29.66 8.86 29.66 26.59v32.43c-.01 3.02.45 5.24 1.38 6.65zm-19.8-7.09v-15.63h-7.74c-12.08 0-18.12 4.48-18.12 13.44 0 3.7.92 6.57 2.78 8.62 1.85 2.05 4.58 3.07 8.18 3.07 6.33 0 11.3-3.16 14.9-9.5zm86.93-57.42-3.21 18.12c-2.34-.58-4.63-.88-6.87-.88-4.58 0-8.18 1.63-10.81 4.89-2.63 3.26-4.73 8.25-6.28 14.98v41.2h-18.7V301.5h16.22l1.75 15.19c1.85-5.55 4.53-9.81 8.04-12.78 3.51-2.97 7.55-4.46 12.13-4.46 2.81.01 5.4.36 7.73 1.03zm57.57 0-3.21 18.12c-2.34-.58-4.63-.88-6.87-.88-4.58 0-8.18 1.63-10.81 4.89-2.63 3.26-4.73 8.25-6.28 14.98v41.2h-18.7V301.5h16.22l1.75 15.19c1.85-5.55 4.53-9.81 8.04-12.78 3.51-2.97 7.55-4.46 12.13-4.46 2.81.01 5.39.36 7.73 1.03zm29.44-34.84c2.19 2.19 3.29 4.89 3.29 8.11s-1.1 5.89-3.29 8.04c-2.19 2.14-5.04 3.21-8.55 3.21-3.41 0-6.21-1.07-8.4-3.21-2.19-2.14-3.29-4.82-3.29-8.04s1.1-5.92 3.29-8.11c2.19-2.19 4.99-3.29 8.4-3.29 3.51 0 6.36 1.1 8.55 3.29zm.95 35.87v77.29h-18.7v-77.29h18.7zm58.88 35.94 25.86 41.35h-21.62l-15.92-30.68-15.78 30.68h-20.6l25.71-40.76-23.08-36.53h21.33l13.15 26.3 13-26.3h20.31l-22.36 35.94zm133.75-51.58c7.16 5.36 10.74 13.39 10.74 24.11 0 11.2-3.6 19.6-10.81 25.2-7.21 5.6-16.8 8.4-28.78 8.4H868.4v35.21h-19.29V277.84h29.81c12.95 0 23 2.68 30.16 8.03zm-14.68 38.94c3.51-2.87 5.26-7.82 5.26-14.83 0-11.98-6.96-17.97-20.89-17.97H868.4v37.11h10.37c6.91 0 12.12-1.43 15.63-4.31zm77.14 54.28c-3.12 9.54-7.84 16.97-14.17 22.28-6.33 5.31-15 8.4-26.01 9.28l-1.9-13.59c5.06-.78 9.13-1.88 12.2-3.29 3.07-1.41 5.53-3.29 7.38-5.62 1.85-2.34 3.55-5.46 5.11-9.35h-6.43l-24.55-77.29h19.87l16.8 64.87 17.53-64.87h19.29l-25.12 77.58zm110.75-33.31c0 6.82-1.44 12.88-4.31 18.19-2.87 5.31-7.16 9.47-12.86 12.49-5.7 3.02-12.54 4.53-20.53 4.53-12.08 0-21.33-3.19-27.76-9.57-6.43-6.38-9.64-14.93-9.64-25.64v-67.94h19.29v66.92c0 7.11 1.48 12.42 4.46 15.93 2.97 3.51 7.52 5.26 13.66 5.26 6.23 0 10.83-1.75 13.81-5.26 2.97-3.51 4.46-8.82 4.46-15.93v-66.92h19.43v67.94zm65.89 29.36c-2.73 1.95-5.77 3.41-9.13 4.38a36.94 36.94 0 0 1-10.3 1.46c-7.6-.1-13.37-2.27-17.31-6.5-3.94-4.24-5.92-10.49-5.92-18.77v-40.76h-12.13v-13.44h12.13v-17.09l18.7-2.19v19.29h17.97l-1.9 13.44h-16.07v40.33c0 3.8.66 6.53 1.97 8.18 1.32 1.66 3.38 2.48 6.21 2.48 2.82 0 5.89-.93 9.2-2.78l6.58 11.97zm28.27-109.5c2.19 2.19 3.29 4.89 3.29 8.11s-1.1 5.89-3.29 8.04c-2.19 2.14-5.04 3.21-8.55 3.21-3.41 0-6.21-1.07-8.4-3.21-2.19-2.14-3.29-4.82-3.29-8.04s1.1-5.92 3.29-8.11c2.19-2.19 4.99-3.29 8.4-3.29 3.51 0 6.36 1.1 8.55 3.29zm.95 35.87v77.29h-18.7v-77.29h18.7zm26.81 74.29c-3.36-3.46-5.04-8.35-5.04-14.68v-90.58l18.7-2.05v92.05c0 3.6 1.46 5.41 4.38 5.41 1.46 0 2.92-.24 4.38-.73l3.95 13.15c-3.9 1.75-8.04 2.63-12.42 2.63-5.94-.01-10.59-1.74-13.95-5.2zm56.54-110.16c2.19 2.19 3.29 4.89 3.29 8.11s-1.1 5.89-3.29 8.04c-2.19 2.14-5.04 3.21-8.55 3.21-3.41 0-6.21-1.07-8.4-3.21-2.19-2.14-3.29-4.82-3.29-8.04s1.1-5.92 3.29-8.11c2.19-2.19 4.99-3.29 8.4-3.29 3.51 0 6.36 1.1 8.55 3.29zm.95 35.87v77.29H1243v-77.29h18.7zm66.77 73.63c-2.73 1.95-5.77 3.41-9.13 4.38a36.94 36.94 0 0 1-10.3 1.46c-7.6-.1-13.37-2.27-17.31-6.5-3.94-4.24-5.92-10.49-5.92-18.77v-40.76h-12.13v-13.44h12.13v-17.09l18.7-2.19v19.29h17.97l-1.9 13.44h-16.07v40.33c0 3.8.66 6.53 1.97 8.18 1.32 1.66 3.38 2.48 6.21 2.48 2.82 0 5.89-.93 9.2-2.78l6.58 11.97zm28.27-109.5c2.19 2.19 3.29 4.89 3.29 8.11s-1.1 5.89-3.29 8.04c-2.19 2.14-5.04 3.21-8.55 3.21-3.41 0-6.21-1.07-8.4-3.21-2.19-2.14-3.29-4.82-3.29-8.04s1.1-5.92 3.29-8.11c2.19-2.19 4.99-3.29 8.4-3.29 3.51 0 6.36 1.1 8.55 3.29zm.95 35.87v77.29h-18.7v-77.29h18.7zm85.47 44.41h-48.51c.58 7.5 2.53 12.86 5.84 16.07 3.31 3.21 7.69 4.82 13.15 4.82 3.41 0 6.62-.56 9.64-1.68 3.02-1.12 6.23-2.85 9.64-5.19l7.74 10.67c-8.57 6.92-18.12 10.37-28.64 10.37-11.79 0-20.87-3.6-27.25-10.81-6.38-7.21-9.57-17.04-9.57-29.51 0-7.89 1.36-14.97 4.09-21.26 2.73-6.28 6.67-11.2 11.83-14.76 5.16-3.55 11.3-5.33 18.41-5.33 10.81 0 19.19 3.43 25.13 10.3 5.94 6.87 8.91 16.44 8.91 28.71.03.98-.12 3.51-.41 7.6zm-18.12-13c0-13.54-5.02-20.31-15.05-20.31-4.58 0-8.16 1.68-10.74 5.04-2.58 3.36-4.12 8.74-4.6 16.14h30.39v-.87zm87.23-24.4-7.31 10.96c-6.62-4.19-13.1-6.28-19.43-6.28-3.7 0-6.57.71-8.62 2.12-2.05 1.41-3.07 3.29-3.07 5.62 0 1.75.44 3.21 1.32 4.38.88 1.17 2.46 2.27 4.75 3.29s5.67 2.17 10.15 3.43c8.38 2.24 14.59 5.21 18.63 8.91 4.04 3.7 6.06 8.86 6.06 15.49 0 7.69-3.12 13.71-9.35 18.04-6.23 4.33-13.98 6.5-23.23 6.5-6.33 0-12.1-.98-17.31-2.92-5.21-1.95-9.72-4.62-13.51-8.04l9.35-10.52c6.72 5.07 13.73 7.6 21.04 7.6 4.19 0 7.52-.83 10.01-2.48 2.48-1.66 3.73-3.94 3.73-6.87 0-2.24-.46-4.02-1.39-5.33-.93-1.31-2.58-2.48-4.97-3.51-2.39-1.02-6.11-2.27-11.18-3.73-7.89-2.14-13.69-5.14-17.39-8.99-3.7-3.85-5.55-8.64-5.55-14.39 0-4.28 1.24-8.13 3.73-11.54 2.48-3.41 5.99-6.09 10.52-8.04 4.53-1.95 9.72-2.92 15.56-2.92 10.41.02 19.57 3.08 27.46 9.22z" style="fill:#fff"/><path d="M24.71 19.9h40.93v11.51H24.71V19.9zm51.17 0h71.64v11.51H75.88V19.9zm81.87 0h61.4v11.51h-61.4V19.9zm71.63 0h40.93v11.51h-40.93V19.9zM24.71 65.95h40.93v11.51H24.71V65.95zm51.17 0h10.23v11.51H75.88V65.95zm20.47 0h20.47v11.51H96.35V65.95zM24.71 112h102.34v11.51H24.71V112zm112.57 0h10.23v11.51h-10.23V112zm20.47 0h20.47v11.51h-20.47V112zM24.71 135.03h30.7v11.51h-30.7v-11.51zm40.93 0h10.23v11.51H65.64v-11.51zm20.47 0h20.47v11.51H86.11v-11.51zm30.7 0h81.87v11.51h-81.87v-11.51zm-51.17 23.02h40.93v11.51H65.64v-11.51zm51.17 0h10.23v11.51h-10.23v-11.51zm20.47 0h20.47v11.51h-20.47v-11.51zm-71.64 23.03h20.47v11.51H65.64v-11.51zm30.71 0h61.4v11.51h-61.4v-11.51zm71.63 0h10.23v11.51h-10.23v-11.51zm20.47 0h112.57v11.51H188.45v-11.51zm-81.87 23.02h102.34v11.51H106.58V204.1zm112.57 0h10.23v11.51h-10.23V204.1zm20.47 0h61.4v11.51h-61.4V204.1zM65.64 227.13h30.7v11.51h-30.7v-11.51zm40.94 0h61.4v11.51h-61.4v-11.51zm71.63 0h20.47v11.51h-20.47v-11.51zm30.71 0h20.47v11.51h-20.47v-11.51zm-102.34 23.02h20.47v11.51h-20.47v-11.51zm30.7 0h61.4v11.51h-61.4v-11.51zm71.64 0h20.47v11.51h-20.47v-11.51zm30.7 0h143.27v11.51H239.62v-11.51zm-92.11 23.03h143.27v11.51H147.51v-11.51zm-40.93 23.03h51.17v11.51h-51.17v-11.51zm40.93 23.02h143.27v11.51H147.51v-11.51zm-81.87 23.03h173.97v11.51H65.64v-11.51zm-40.93 46.05h51.17v11.51H24.71v-11.51zm61.4 0h10.23v11.51H86.11v-11.51zm20.47 0h102.34v11.51H106.58v-11.51zm112.57 0h10.23v11.51h-10.23v-11.51zm20.47 0h122.8v11.51h-122.8v-11.51zm133.03 0h10.23v11.51h-10.23v-11.51zm20.47 0h10.23v11.51h-10.23v-11.51zm20.47 0h10.23v11.51h-10.23v-11.51zm20.46 0h61.4v11.51h-61.4v-11.51zM24.71 434.36h30.7v11.51h-30.7v-11.51zm40.93 0h10.23v11.51H65.64v-11.51zm20.47 0h20.47v11.51H86.11v-11.51zm30.7 0h173.97v11.51H116.81v-11.51zm-51.17 23.02h20.47v11.51H65.64v-11.51zm30.71 0h10.23v11.51H96.35v-11.51zm20.46 0h10.23v11.51h-10.23v-11.51zm-51.17 23.03h122.8v11.51H65.64v-11.51zm133.04 0h10.23v11.51h-10.23v-11.51zm20.47 0h10.23v11.51h-10.23v-11.51zM65.64 503.44h40.93v11.51H65.64v-11.51zm51.17 0h10.23v11.51h-10.23v-11.51zm20.47 0h51.17v11.51h-51.17v-11.51zm-71.64 23.02h71.64v11.51H65.64v-11.51zm81.87 0h10.23v11.51h-10.23v-11.51zm20.47 0h10.23v11.51h-10.23v-11.51zM24.71 572.51h61.4v11.51h-61.4v-11.51zm71.64 0h20.47v11.51H96.35v-11.51zm30.7 0H628.5v11.51H127.05v-11.51zM24.71 618.56h40.93v11.51H24.71v-11.51zm51.17 0h184.21v11.51H75.88v-11.51zm194.44 0h40.93v11.51h-40.93v-11.51zm51.17 0h20.47v11.51h-20.47v-11.51zm30.7 0h51.17v11.51h-51.17v-11.51zM65.64 641.59h184.21v11.51H65.64v-11.51z" style="opacity:.2;fill:#fff"/><path d="M774.44 16.05h271.28v30.52H774.44V16.05zm298.41 0h27.13v30.52h-27.13V16.05zm54.25 0h162.77v30.52H1127.1V16.05zM665.93 77.09h81.38v30.52h-81.38V77.09zm108.51 0h162.77v30.52H774.44V77.09zm189.89 0h54.26v30.52h-54.26V77.09zm81.39 0h54.26v30.52h-54.26V77.09zm-271.28 61.04h54.26v30.52h-54.26v-30.52zm81.38 0h162.77v30.52H855.82v-30.52zm189.9 0h54.26v30.52h-54.26v-30.52zm81.38 0h379.79v30.52H1127.1v-30.52zm-244.15 61.03h379.79v30.52H882.95v-30.52zM774.44 260.2h135.64v30.52H774.44V260.2zm108.51 61.04h379.79v30.52H882.95v-30.52zm-217.02 61.04h461.18v30.52H665.93v-30.52zM557.42 504.35h135.64v30.52H557.42v-30.52zm162.76 0h27.13v30.52h-27.13v-30.52zm54.26 0h271.28v30.52H774.44v-30.52zm298.41 0h27.13v30.52h-27.13v-30.52zm54.25 0h325.54v30.52H1127.1v-30.52zm352.67 0h27.13v30.52h-27.13v-30.52zm54.25 0h27.13v30.52h-27.13v-30.52zm54.26 0h27.13v30.52h-27.13v-30.52zm54.25 0h162.77v30.52h-162.77v-30.52zM557.42 626.43h81.38v30.52h-81.38v-30.52zm108.51 0h27.13v30.52h-27.13v-30.52zm54.25 0h54.26v30.52h-54.26v-30.52zm81.39 0h461.18v30.52H801.57v-30.52z" style="opacity:.05;fill:#fff"/></svg>