<?xml version="1.0" encoding="utf-8"?>
<!-- Generator: Adobe Illustrator 18.0.0, SVG Export Plug-In . SVG Version: 6.00 Build 0)  -->
<!DOCTYPE svg PUBLIC "-//W3C//DTD SVG 1.1//EN" "http://www.w3.org/Graphics/SVG/1.1/DTD/svg11.dtd">
<svg version="1.1" xmlns="http://www.w3.org/2000/svg" xmlns:xlink="http://www.w3.org/1999/xlink" x="0px" y="0px"
	 viewBox="0 0 658.3 108" enable-background="new 0 0 658.3 108" xml:space="preserve">
<g id="Text">
	<g>
		<path fill="#010101" d="M157.9,33.9v42.6h-6.8V57.8h-21.5v18.8H123V33.9h6.7v17.8h21.5V33.9H157.9z"/>
		<path fill="#010101" d="M174.7,77.1c-1.5,0-2.9-0.3-4.2-0.8c-1.3-0.5-2.4-1.2-3.4-2.1c-0.9-0.9-1.7-1.9-2.2-3.1
			c-0.5-1.2-0.8-2.5-0.8-3.9c0-1.5,0.3-2.8,1-4c0.6-1.2,1.5-2.2,2.7-3.1c1.2-0.9,2.6-1.6,4.2-2c1.6-0.5,3.4-0.7,5.4-0.7
			c1.5,0,2.9,0.1,4.4,0.4c1.4,0.3,2.7,0.6,3.9,1v-2.2c0-2.3-0.7-4.1-2-5.4c-1.3-1.3-3.2-2-5.7-2c-1.7,0-3.3,0.3-5,0.9
			c-1.6,0.6-3.3,1.5-5,2.7l-2-4.2c4-2.7,8.2-4.1,12.6-4.1c4.3,0,7.7,1.1,10.1,3.3c2.4,2.2,3.6,5.4,3.6,9.5v11.3
			c0,1.4,0.6,2.1,1.7,2.2v5.6c-0.6,0.1-1.2,0.2-1.6,0.2c-0.5,0-0.9,0.1-1.4,0.1c-1.3,0-2.3-0.3-3-1c-0.7-0.6-1.1-1.5-1.3-2.5l-0.2-2
			c-1.4,1.8-3.1,3.3-5.2,4.2C179.3,76.6,177.1,77.1,174.7,77.1z M176.5,72.3c1.6,0,3.1-0.3,4.5-0.9c1.4-0.6,2.5-1.4,3.3-2.4
			c0.8-0.7,1.3-1.5,1.3-2.3v-4.1c-1.1-0.4-2.3-0.8-3.6-1c-1.3-0.2-2.5-0.4-3.7-0.4c-2.4,0-4.3,0.5-5.8,1.5c-1.5,1-2.3,2.4-2.3,4
			c0,1.6,0.6,2.9,1.7,3.9C173.3,71.8,174.7,72.3,176.5,72.3z"/>
		<path fill="#010101" d="M217.9,50.9c-2.6,0.1-4.8,0.7-6.8,1.8c-2,1.1-3.4,2.7-4.2,4.7v19.2h-6.6V45.2h6.1v7
			c1.1-2.2,2.5-3.9,4.2-5.2c1.7-1.3,3.6-2,5.6-2.1c0.4,0,0.7,0,1,0c0.3,0,0.5,0,0.7,0.1V50.9z"/>
		<path fill="#010101" d="M240.3,50.9c-2.6,0.1-4.8,0.7-6.8,1.8c-2,1.1-3.4,2.7-4.2,4.7v19.2h-6.6V45.2h6.1v7
			c1.1-2.2,2.5-3.9,4.2-5.2c1.7-1.3,3.6-2,5.6-2.1c0.4,0,0.7,0,1,0c0.3,0,0.5,0,0.7,0.1V50.9z"/>
		<path fill="#010101" d="M245.1,40v-7.3h6.6V40H245.1z M245.1,76.5V45.2h6.6v31.4H245.1z"/>
		<path fill="#010101" d="M263.1,45.2l7.7,10.7l0.5,1l0.5-1l7.6-10.7h6.9l-11.5,15.7l11.6,15.7h-6.9l-7.7-10.7l-0.5-1l-0.5,1
			l-7.7,10.7h-6.9l11.6-15.7l-11.5-15.7H263.1z"/>
		<path fill="#010101" d="M346,76.5V38l-17.9,30.2h-1.4L308.8,38v38.5h-2.1V33.9h1.9l18.8,31.7l18.8-31.7h1.9v42.6H346z"/>
		<path fill="#010101" d="M366,77.1c-1.4,0-2.8-0.3-4-0.8c-1.2-0.5-2.3-1.2-3.2-2c-0.9-0.9-1.6-1.9-2.2-3c-0.5-1.2-0.8-2.4-0.8-3.8
			c0-1.3,0.3-2.5,1-3.6c0.6-1.1,1.5-2,2.7-2.9c1.1-0.8,2.5-1.4,4.1-1.9s3.3-0.7,5.2-0.7c1.8,0,3.5,0.1,5.3,0.4
			c1.8,0.3,3.4,0.7,4.8,1.3v-3.4c0-3.1-0.9-5.6-2.7-7.5c-1.8-1.9-4.2-2.8-7.2-2.8c-1.5,0-3.1,0.3-4.9,1c-1.7,0.7-3.4,1.6-5.2,2.9
			l-1-1.5c4-2.7,7.7-4.1,11.1-4.1c3.6,0,6.5,1.1,8.6,3.2c2.1,2.2,3.1,5.1,3.1,8.9v16.3c0,0.9,0.4,1.3,1.1,1.3v1.9
			c-0.1,0-0.2,0.1-0.3,0.1c-0.1,0-0.2,0-0.3,0c-0.7,0-1.3-0.2-1.7-0.8c-0.5-0.5-0.7-1.1-0.7-1.8v-2.8c-1.4,1.9-3.3,3.3-5.6,4.3
			C371.1,76.6,368.7,77.1,366,77.1z M366.3,75.4c1.5,0,3-0.2,4.5-0.6c1.5-0.4,2.9-0.9,4-1.7c1.2-0.7,2.2-1.5,2.9-2.4
			c0.8-0.9,1.1-1.9,1.1-2.9v-5.9c-3.1-1.2-6.4-1.8-10-1.8c-1.6,0-3.1,0.2-4.5,0.5c-1.4,0.4-2.5,0.9-3.5,1.5c-1,0.6-1.7,1.4-2.3,2.3
			c-0.5,0.9-0.8,1.9-0.8,3c0,1.1,0.2,2.2,0.7,3.1c0.4,1,1,1.8,1.8,2.5c0.8,0.7,1.6,1.3,2.7,1.7C364,75.2,365.1,75.4,366.3,75.4z"/>
		<path fill="#010101" d="M404.2,47.3c-2.9,0.1-5.4,1-7.5,2.7c-2.1,1.7-3.6,4-4.4,6.9v19.6h-2V45.3h2v7.9c1.1-2.2,2.5-4,4.3-5.4
			c1.8-1.4,3.7-2.2,5.8-2.5c0.4,0,0.8-0.1,1.1-0.1c0.3,0,0.6,0,0.8,0V47.3z"/>
		<path fill="#010101" d="M421.3,77.1c-2.2,0-4.2-0.5-6-1.4s-3.4-2.1-4.8-3.6c-1.3-1.5-2.4-3.2-3.1-5.1c-0.7-1.9-1.1-3.9-1.1-5.9
			c0-2.2,0.4-4.2,1.1-6.2c0.7-2,1.7-3.7,3-5.2c1.3-1.5,2.8-2.7,4.6-3.5c1.8-0.9,3.7-1.3,5.8-1.3c1.4,0,2.7,0.2,4,0.6
			c1.2,0.4,2.4,1,3.5,1.6c1.1,0.7,2,1.5,2.9,2.4c0.9,0.9,1.6,1.9,2.2,2.9V32.7h2v40.6c0,0.9,0.4,1.3,1.1,1.3v1.9
			c-0.1,0-0.3,0.1-0.5,0.1c-0.7,0-1.3-0.3-1.8-0.8c-0.5-0.5-0.7-1.1-0.7-1.8v-3.8c-0.6,1-1.4,2-2.3,2.9s-1.9,1.6-2.9,2.2
			c-1,0.6-2.1,1.1-3.3,1.4C423.7,77,422.5,77.1,421.3,77.1z M421.6,75.2c1.2,0,2.4-0.2,3.7-0.7c1.3-0.5,2.6-1.1,3.7-2
			c1.1-0.8,2.1-1.8,2.9-2.9c0.8-1.1,1.2-2.3,1.3-3.5V55.5c-0.4-1.2-1.1-2.3-1.9-3.4c-0.9-1.1-1.9-2-3-2.8c-1.1-0.8-2.3-1.4-3.6-1.9
			c-1.3-0.5-2.5-0.7-3.7-0.7c-1.9,0-3.7,0.4-5.2,1.2c-1.6,0.8-2.9,1.9-4,3.2c-1.1,1.3-1.9,2.9-2.5,4.6c-0.6,1.7-0.9,3.4-0.9,5.2
			c0,1.9,0.3,3.7,1,5.4c0.7,1.7,1.6,3.2,2.8,4.5c1.2,1.3,2.6,2.3,4.2,3.1S419.7,75.2,421.6,75.2z"/>
		<path fill="#010101" d="M457.9,77.1c-2.1,0-4.1-0.4-5.9-1.3c-1.8-0.9-3.4-2-4.8-3.5c-1.4-1.5-2.4-3.2-3.2-5.1
			c-0.8-2-1.1-4-1.1-6.2c0-2.2,0.4-4.3,1.2-6.2c0.8-2,1.9-3.7,3.2-5.2c1.4-1.5,3-2.6,4.8-3.5c1.8-0.9,3.8-1.3,5.8-1.3s4,0.4,5.9,1.3
			c1.8,0.9,3.4,2,4.8,3.5c1.4,1.5,2.4,3.2,3.2,5.2c0.8,2,1.2,4,1.2,6.2c0,2.2-0.4,4.2-1.2,6.2c-0.8,2-1.8,3.7-3.2,5.1
			s-2.9,2.6-4.8,3.5C462,76.7,460,77.1,457.9,77.1z M444.9,61.1c0,1.9,0.3,3.7,1,5.5c0.7,1.7,1.6,3.2,2.8,4.5s2.5,2.3,4.1,3
			c1.6,0.7,3.2,1.1,5,1.1c1.8,0,3.5-0.4,5.1-1.1c1.6-0.8,3-1.8,4.1-3.1c1.2-1.3,2.1-2.8,2.8-4.5c0.7-1.7,1-3.6,1-5.5s-0.3-3.8-1-5.5
			c-0.7-1.7-1.6-3.2-2.8-4.5c-1.2-1.3-2.6-2.3-4.1-3.1c-1.6-0.8-3.3-1.1-5-1.1c-1.8,0-3.4,0.4-5,1.1c-1.6,0.8-2.9,1.8-4.1,3.1
			c-1.2,1.3-2.1,2.8-2.8,4.6C445.3,57.3,444.9,59.2,444.9,61.1z"/>
		<path fill="#010101" d="M519,45.3h2.1l-13.6,31.2h-1.7l-7.3-17l-7.4,17h-1.7l-13.6-31.2h2.1l12.4,28.7l7-16.4l-5.2-12.3h1.9
			l4.5,10.5l4.4-10.5h1.9l-5.3,12.3l7.1,16.4L519,45.3z"/>
		<path fill="#010101" d="M552.1,76.5h-2V59.1c0-4.3-0.6-7.4-1.8-9.4c-1.2-2-3.2-3-5.8-3c-1.4,0-2.8,0.3-4.2,0.8
			c-1.4,0.5-2.7,1.2-3.9,2.2c-1.2,0.9-2.2,2-3.1,3.2c-0.9,1.2-1.5,2.6-1.9,4.1v19.5h-2V45.3h2v7.8c0.6-1.2,1.4-2.4,2.4-3.4
			s2-1.9,3.2-2.6c1.2-0.7,2.5-1.3,3.8-1.7c1.3-0.4,2.7-0.6,4.1-0.6c3.3,0,5.6,1.2,7.1,3.5s2.2,5.9,2.2,10.5V76.5z"/>
		<path fill="#010101" d="M562.4,76.5V33.9H590v1.9h-25.5v18h21.7v1.9h-21.7v20.8H562.4z"/>
		<path fill="#010101" d="M597.4,37.8v-5h2v5H597.4z M597.4,76.5V45.3h2v31.2H597.4z"/>
		<path fill="#010101" d="M609.6,32.7h2v38.5c0,1.2,0.4,2.1,1.1,2.8c0.7,0.7,1.7,1,2.8,1c0.4,0,1,0,1.6-0.1c0.6-0.1,1.2-0.3,1.7-0.5
			l0.5,1.7c-0.6,0.2-1.3,0.4-2.3,0.5c-0.9,0.2-1.7,0.2-2.3,0.2c-1.5,0-2.8-0.5-3.7-1.4c-0.9-0.9-1.4-2.2-1.4-3.8V32.7z"/>
		<path fill="#010101" d="M637,77.1c-2.1,0-4.1-0.4-5.9-1.3c-1.8-0.9-3.5-2-4.8-3.5s-2.5-3.2-3.2-5.2c-0.8-2-1.2-4.1-1.2-6.3
			c0-2.2,0.4-4.3,1.1-6.2c0.8-1.9,1.8-3.6,3.2-5c1.4-1.4,2.9-2.6,4.7-3.4s3.8-1.3,5.9-1.3c2.2,0,4.2,0.4,6,1.3
			c1.8,0.8,3.4,2,4.8,3.4c1.4,1.5,2.4,3.2,3.2,5.1c0.8,2,1.2,4,1.2,6.2c0,0.1,0,0.2,0,0.5s0,0.4-0.1,0.4h-28
			c0.2,1.9,0.6,3.7,1.3,5.4c0.7,1.7,1.7,3.1,2.9,4.3s2.5,2.2,4.1,2.8c1.5,0.7,3.2,1,4.9,1c1.1,0,2.2-0.1,3.3-0.4
			c1.1-0.3,2.1-0.7,3.1-1.3c1-0.6,1.8-1.2,2.5-2c0.7-0.8,1.3-1.6,1.7-2.5l1.9,0.5c-0.4,1.1-1.1,2.1-1.9,3c-0.8,0.9-1.8,1.7-3,2.4
			c-1.1,0.7-2.4,1.2-3.7,1.6C639.8,76.9,638.4,77.1,637,77.1z M649.9,60.1c-0.1-2-0.5-3.8-1.3-5.4c-0.7-1.6-1.7-3.1-2.8-4.3
			c-1.2-1.2-2.5-2.1-4.1-2.8c-1.5-0.7-3.2-1-4.9-1c-1.8,0-3.4,0.3-4.9,1c-1.5,0.7-2.8,1.6-4,2.8c-1.1,1.2-2.1,2.6-2.8,4.3
			c-0.7,1.6-1.1,3.4-1.2,5.3H649.9z"/>
	</g>
</g>
<g id="Harrix">
	<g>
		<path fill="#DE2B26" d="M16.7,54.6c0-20.2,16.4-36.6,36.6-36.6c12.8,0,24,6.6,30.6,16.5l11.5-5C82.9,8.7,56.6-0.2,33.7,9.8
			C10.9,19.7-0.6,45,6.2,68.3l11.5-5C17,60.5,16.7,57.6,16.7,54.6z"/>
		<path fill="#DE2B26" d="M100.2,41l-11.5,5c0.7,2.8,1,5.7,1,8.7c0,20.2-16.4,36.6-36.6,36.6c-12.8,0-24-6.6-30.6-16.5l-11.5,5
			c12.4,20.9,38.7,29.7,61.5,19.8C95.6,89.6,107,64.3,100.2,41z"/>
	</g>
	<g>
		<path fill="#DE2B26" d="M32.4,77.1l-9.8-22.6l6.6-2.9l10.3,5.4l3-11.2l6.6-2.9L59,65.6l-6.6,2.9l-5.6-13l-3,11.2l-10.3-5.4l5.6,13
			L32.4,77.1z"/>
		<path fill="#DE2B26" d="M73.9,59.1l-14.7-6.6l6.6-2.9l-5.1-11.6l6.6-2.9l5.1,11.6l6.6-2.9L73.9,59.1z"/>
	</g>
</g>
</svg>
